<?xml version="1.0" encoding="utf-8"?>
<!-- Generator: Adobe Illustrator 16.0.0, SVG Export Plug-In . SVG Version: 6.00 Build 0)  -->
<!DOCTYPE svg PUBLIC "-//W3C//DTD SVG 1.1//EN" "http://www.w3.org/Graphics/SVG/1.1/DTD/svg11.dtd">
<svg version="1.1" id="Capa_1" xmlns="http://www.w3.org/2000/svg" xmlns:xlink="http://www.w3.org/1999/xlink" x="0px" y="0px"
	 width="500px" height="500px" viewBox="0 0 500 500" enable-background="new 0 0 500 500" xml:space="preserve">
<g>
	<path fill="#FFFFFF" d="M408.024,463.989c-97.896,0-195.793,0-293.689,0c-11.019-3.707-14.752-11.615-14.736-22.895
		c0.173-123.971,0.174-247.942-0.001-371.913c-0.016-11.281,3.706-19.19,14.737-22.883c97.896,0,195.792,0,293.689,0
		c11.02,3.705,14.751,11.614,14.735,22.893c-0.172,123.969-0.175,247.939,0,371.906
		C422.775,452.377,419.049,460.287,408.024,463.989z M345.034,85.648c-0.361,4.38-0.201,8.396-1.096,12.164
		c-2.663,11.25-11.949,18.003-24.442,18.035c-24.467,0.063-48.935,0.042-73.401,0.014c-15.495-0.017-30.999,0.176-46.481-0.261
		c-11.691-0.33-20.864-9.781-21.727-21.416c-0.208-2.806-0.293-5.621-0.438-8.498c-12.006,0-23.654,0-35.469,0
		c0,111.931,0,223.675,0,335.375c79.718,0,159.033,0,238.521,0c0-111.951,0-223.606,0-335.412
		C368.563,85.648,356.907,85.648,345.034,85.648z M177.502,57.003c-1.375-0.077-2.317-0.176-3.258-0.176
		c-17.945-0.012-35.891-0.023-53.836-0.009c-7.679,0.005-10.172,2.542-10.173,10.335c-0.004,125.346-0.004,250.693,0,376.041
		c0,7.74,2.53,10.295,10.227,10.296c93.806,0.009,187.612,0.008,281.416,0c7.715-0.001,10.247-2.546,10.247-10.276
		c0.005-125.348,0.005-250.694,0-376.04c0-7.794-2.504-10.347-10.17-10.354c-17.673-0.018-35.347-0.01-53.021,0.004
		c-1.308,0-2.608,0.139-3.964,0.216c0,6.123,0,11.89,0,17.971c12.654,0,25.012-0.005,37.366,0.001
		c7.508,0.004,8.767,1.251,8.769,8.728c0.013,113.111,0.024,226.222,0.034,339.332c0,7.625-1.034,8.64-8.819,8.64
		c-76.271,0.004-152.538,0.002-228.806,0c-4.622,0-9.244-0.021-13.866-0.036c-7.282-0.025-8.367-1.086-8.395-8.189
		c-0.003-0.815-0.001-1.633-0.001-2.447c-0.012-59.684-0.032-119.364-0.033-179.047c0-53.021,0.011-106.04,0.039-159.063
		c0.004-6.412,1.511-7.893,7.943-7.912c11.284-0.034,22.568,0,33.852-0.016c1.434-0.002,2.868-0.129,4.449-0.207
		C177.502,68.715,177.502,63.055,177.502,57.003z M188.467,85.631c-1.811,12.963,3.337,19.805,14.886,19.829
		c38.58,0.076,77.158,0.078,115.735-0.001c11.571-0.023,17.658-8.438,14.554-19.828C285.332,85.631,236.997,85.631,188.467,85.631z
		 M188.227,74.688c48.879,0,97.312,0,145.78,0c0-6.086,0-11.846,0-17.567c-48.75,0-97.187,0-145.78,0
		C188.227,63.088,188.227,68.746,188.227,74.688z"/>
	<path fill="#FFFFFF" d="M292.577,300.829c17.123,0,34.246-0.001,51.369,0.003c1.088,0,2.181-0.053,3.259,0.061
		c2.965,0.309,4.896,2.019,5.031,4.94c0.146,3.175-1.854,4.964-4.941,5.438c-0.934,0.143-1.898,0.084-2.849,0.084
		c-34.246-0.002-68.492-0.006-102.738-0.016c-5.987,0-8.465-1.535-8.492-5.232c-0.027-3.725,2.435-5.274,8.4-5.277
		C258.604,300.827,275.591,300.829,292.577,300.829z"/>
	<path fill="#FFFFFF" d="M292.659,366.051c17.39,0,34.779-0.045,52.168,0.063c1.922,0.012,4.203,0.398,5.679,1.479
		c2.979,2.185,2.103,6.948-1.396,8.261c-1.594,0.596-3.455,0.657-5.193,0.66c-34.102,0.035-68.201,0.025-102.3,0.025
		c-0.681,0-1.362,0.023-2.039-0.01c-4.188-0.207-6.378-2.053-6.346-5.329c0.032-3.276,2.233-5.125,6.443-5.134
		C257.337,366.029,274.998,366.052,292.659,366.051z"/>
	<path fill="#FFFFFF" d="M292.587,165.293c17.396,0,34.791-0.002,52.187,0.002c0.95,0,1.911-0.027,2.851,0.09
		c2.841,0.351,4.479,2.141,4.613,4.85c0.137,2.727-1.348,4.682-4.152,5.221c-1.454,0.28-2.965,0.336-4.449,0.336
		c-33.975,0.005-67.951-0.01-101.927-0.024c-0.95,0-1.907,0.044-2.851-0.047c-3.802-0.367-5.888-2.409-5.583-5.604
		c0.333-3.521,2.626-4.801,5.903-4.8c17.803,0.001,35.605,0.001,53.408,0.001C292.587,165.309,292.587,165.3,292.587,165.293z"/>
	<path fill="#FFFFFF" d="M292.694,240.919c-16.986,0-33.973,0.007-50.957-0.014c-1.488,0-3.006-0.036-4.456-0.316
		c-2.826-0.545-4.583-2.602-3.854-5.218c0.505-1.819,2.517-3.395,4.182-4.636c0.807-0.601,2.371-0.22,3.592-0.22
		c34.379-0.007,68.759-0.007,103.138,0.001c1.223,0,2.793-0.373,3.59,0.233c1.677,1.27,3.993,3.021,4.08,4.678
		c0.085,1.649-1.954,3.803-3.598,5.014c-1.107,0.819-3.139,0.497-4.76,0.499c-16.986,0.027-33.974,0.018-50.958,0.018
		C292.694,240.945,292.694,240.932,292.694,240.919z"/>
	<path fill="#FFFFFF" d="M213.434,371.18c0.096,11.695-9.598,21.581-21.339,21.762c-11.793,0.182-21.876-9.744-21.959-21.612
		c-0.081-11.733,9.585-21.515,21.385-21.642C203.554,349.559,213.334,359.15,213.434,371.18z M191.82,382.418
		c6.076-0.009,11.165-5.032,11.223-11.082c0.059-6.041-4.966-11.135-11.066-11.218c-6.297-0.089-11.516,5.056-11.427,11.263
		C180.636,377.428,185.74,382.427,191.82,382.418z"/>
	<path fill="#FFFFFF" d="M213.443,306.04c0.019,11.698-9.713,21.562-21.415,21.701c-11.799,0.142-21.865-9.812-21.896-21.649
		c-0.031-11.893,9.874-21.689,21.85-21.619C203.748,284.545,213.423,294.268,213.443,306.04z M191.761,294.967
		c-6.15,0.018-11.159,4.946-11.208,11.028c-0.05,6.042,4.99,11.146,11.054,11.2c6.309,0.055,11.466-5.033,11.418-11.269
		C202.979,299.865,197.925,294.947,191.761,294.967z"/>
	<path fill="#FFFFFF" d="M191.932,148.937c11.906,0.055,21.396,9.551,21.46,21.475c0.064,11.917-9.904,21.893-21.732,21.748
		c-11.787-0.144-21.447-9.841-21.518-21.601C170.069,158.641,179.905,148.882,191.932,148.937z M191.95,181.668
		c6.063-0.086,11.086-5.198,11.049-11.244c-0.037-6.079-5.065-11.059-11.177-11.068c-6.285-0.01-11.451,5.218-11.263,11.397
		C180.744,176.8,185.914,181.754,191.95,181.668z"/>
	<path fill="#FFFFFF" d="M191.957,214.119c11.867,0.083,21.477,9.706,21.472,21.504c-0.004,11.923-9.989,21.888-21.79,21.744
		c-11.731-0.143-21.428-9.909-21.492-21.646C170.083,223.805,179.945,214.036,191.957,214.119z M191.804,246.878
		c6.038-0.011,11.133-5.083,11.193-11.142c0.061-6.056-4.941-11.165-11.032-11.269c-6.202-0.104-11.489,5.146-11.407,11.33
		C180.639,241.842,185.763,246.891,191.804,246.878z"/>
</g>
</svg>
