<?xml version="1.0" encoding="utf-8"?>
<!-- Generator: Adobe Illustrator 16.0.0, SVG Export Plug-In . SVG Version: 6.00 Build 0)  -->
<!DOCTYPE svg PUBLIC "-//W3C//DTD SVG 1.1//EN" "http://www.w3.org/Graphics/SVG/1.1/DTD/svg11.dtd">
<svg version="1.1" id="Capa_1" xmlns="http://www.w3.org/2000/svg" xmlns:xlink="http://www.w3.org/1999/xlink" x="0px" y="0px"
	 width="500px" height="500px" viewBox="0 0 500 500" enable-background="new 0 0 500 500" xml:space="preserve">
<g>
	<g>
		<path fill="#FFFFFF" d="M466.855,214.35L261.605,64.071c-3.957-2.897-9.334-2.897-13.291,0L43.064,214.35
			c-5.013,3.671-6.103,10.71-2.431,15.724c3.672,5.014,10.711,6.101,15.724,2.432L254.96,87.092l198.603,145.413
			c2.004,1.467,4.329,2.173,6.639,2.173c3.463,0,6.882-1.594,9.086-4.605C472.958,225.061,471.868,218.021,466.855,214.35z"/>
	</g>
</g>
<g>
	<g>
		<path fill="#FFFFFF" d="M412.469,235.052c-6.212,0-11.251,5.037-11.251,11.25v179.077h-90.001v-97.751
			c0-31.021-25.236-56.256-56.256-56.256c-31.019,0-56.257,25.235-56.257,56.256v97.752h-90.002V246.303
			c0-6.213-5.038-11.25-11.25-11.25c-6.212,0-11.25,5.037-11.25,11.25v190.329c0,6.213,5.038,11.25,11.25,11.25h112.503
			c5.917,0,10.758-4.571,11.206-10.374c0.027-0.264,0.044-0.551,0.044-0.876V327.628c0-18.612,15.143-33.754,33.756-33.754
			c18.612,0,33.756,15.142,33.756,33.754v109.004c0,0.323,0.018,0.605,0.044,0.865c0.442,5.808,5.286,10.385,11.206,10.385H412.47
			c6.214,0,11.25-5.037,11.25-11.25V246.303C423.719,240.089,418.683,235.052,412.469,235.052z"/>
	</g>
</g>
</svg>
