<?xml version="1.0" encoding="utf-8"?>
<!-- Generator: Adobe Illustrator 16.0.0, SVG Export Plug-In . SVG Version: 6.00 Build 0)  -->
<!DOCTYPE svg PUBLIC "-//W3C//DTD SVG 1.1//EN" "http://www.w3.org/Graphics/SVG/1.1/DTD/svg11.dtd">
<svg version="1.1" id="Capa_1" xmlns="http://www.w3.org/2000/svg" xmlns:xlink="http://www.w3.org/1999/xlink" x="0px" y="0px"
	 width="500px" height="500px" viewBox="0 0 500 500" enable-background="new 0 0 500 500" xml:space="preserve">
<g>
	<path fill="#FFFFFF" d="M75.052,468.325c0-11.049,0-22.101,0-33.58c3.257,0,6.306,0,10.019,0c0-2.111,0-3.803,0-5.491
		c0-50.881,0.041-101.765-0.088-152.646c-0.009-3.521,1.119-5.6,3.853-7.698c29.188-22.405,58.272-44.949,87.387-67.45
		c0.952-0.735,1.937-1.428,3.568-2.628c0,16.238,0,31.896,0,48.662c27.973-15.852,55.035-31.186,82.695-46.861
		c0,15.664,0,30.706,0,46.868c27.967-15.83,55.125-31.203,82.854-46.896c0,25.26,0,49.917,0,74.905c4.214,0,8.025,0,12.193,0
		c3.646-60.927,7.288-121.778,10.945-182.887c-2.05-0.255-3.719-0.463-5.979-0.742c0-13.144,0-26.221,0-39.299
		c22.736,0,45.473,0,68.208,0c0,13.076,0,26.151,0,39.437c-2.078,0.148-3.756,0.268-5.761,0.41
		c3.516,61.259,7.01,122.189,10.527,183.512c6.101,0,11.707,0,17.816,0c0,53.074,0,105.727,0,158.78c3.571,0,6.632,0,10.213,0
		c0,7.334,0,14.282,0,21.429c4.851,0,9.168,0,13.488,0c0,4.057,0,8.111,0,12.174C343.013,468.325,209.033,468.325,75.052,468.325z
		 M167.859,223.632c-1.317,0.879-1.874,1.203-2.38,1.594c-21.952,16.938-43.932,33.836-65.768,50.92
		c-1.379,1.078-2.316,3.588-2.32,5.435c-0.124,49.517-0.098,99.03-0.098,148.546c0,1.32,0,2.639,0,4.252
		c114.704,0,228.938,0,343.424,0c0-48.822,0-97.436,0-146.531c-35.895,0-71.523,0-107.449,0c0-22.209,0-43.935,0-66.382
		c-27.709,15.696-54.881,31.086-82.719,46.854c0-15.973,0-31.042,0-46.854c-27.763,15.71-54.931,31.083-82.69,46.79
		C167.859,253.07,167.859,238.774,167.859,223.632z M380.7,92.189c-3.66,61.345-7.299,122.287-10.944,183.353
		c10.519,0,20.57,0,30.888,0c-1.865-43.055-3.718-85.806-5.585-128.888c4.321,0,8.052,0,12.177,0
		c1.888,42.976,3.772,85.889,5.659,128.858c3.646,0,6.918,0,10.332,0c-3.512-61.204-7.005-122.076-10.495-182.945
		c-1.458-0.276-2.601-0.492-3.771-0.714c0-3.961,0-7.691,0-11.894c3.232,0,6.266,0,9.359,0c0-5.277,0-10.076,0-14.85
		c-14.606,0-28.973,0-43.276,0c0,5.038,0,9.723,0,14.947c8.124,0,16.016,0,23.96,0c0,4.267,0,7.989,0,12.133
		C392.865,92.189,386.974,92.189,380.7,92.189z M450.962,447.173c-121.344,0-242.439,0-363.732,0c0,3.071,0,5.832,0,8.746
		c121.36,0,242.485,0,363.732,0C450.962,452.924,450.962,450.159,450.962,447.173z"/>
	<path fill="#FFFFFF" d="M61.248,456.146c3.32,0,6.641,0,10.556,0c0,4.259,0,8.22,0,12.181c-3.519,0-7.038,0-10.556,0
		C61.248,464.267,61.248,460.206,61.248,456.146z"/>
	<path fill="#FFFFFF" d="M106.027,159.601c0-3.982,0-7.614,0-11.579c59.953,0,119.805,0,179.901,0c0,3.796,0,7.521,0,11.579
		C226.101,159.601,166.253,159.601,106.027,159.601z"/>
	<path fill="#FFFFFF" d="M328.026,107.583c0,4.001,0,7.712,0,11.703c-58.892,0-117.544,0-176.563,0c0-3.826,0-7.645,0-11.703
		C210.319,107.583,269.086,107.583,328.026,107.583z"/>
	<path fill="#FFFFFF" d="M138.441,107.648c0,3.899,0,7.62,0,11.63c-10.833,0-21.445,0-32.29,0c0-3.794,0-7.536,0-11.63
		C116.841,107.648,127.543,107.648,138.441,107.648z"/>
	<path fill="#FFFFFF" d="M328.033,147.856c0,4.159,0,7.874,0,11.83c-10.301,0-20.372,0-30.633,0c0-3.983,0-7.825,0-11.83
		C307.678,147.856,317.642,147.856,328.033,147.856z"/>
	<path fill="#FFFFFF" d="M232.47,307.932c0,16.883,0,33.459,0,50.282c-37.34,0-74.455,0-111.791,0c0-16.825,0-33.403,0-50.282
		C157.872,307.932,194.978,307.932,232.47,307.932z M220.307,320.193c-29.484,0-58.449,0-87.365,0c0,8.798,0,17.242,0,25.785
		c29.263,0,58.246,0,87.365,0C220.307,337.25,220.307,328.792,220.307,320.193z"/>
	<path fill="#FFFFFF" d="M232.544,370.201c0,16.833,0,33.299,0,50.031c-37.305,0-74.435,0-111.826,0c0-16.639,0-33.2,0-50.031
		C157.941,370.201,195.066,370.201,232.544,370.201z M220.347,382.434c-29.44,0-58.428,0-87.402,0c0,8.729,0,17.168,0,25.59
		c29.279,0,58.276,0,87.402,0C220.347,399.414,220.347,391.076,220.347,382.434z"/>
	<path fill="#FFFFFF" d="M321.814,276.918c0,3.996,0,7.631,0,11.611c-51.756,0-103.453,0-155.475,0c0-3.676,0-7.5,0-11.611
		C218.041,276.918,269.734,276.918,321.814,276.918z"/>
	<path fill="#FFFFFF" d="M244.058,358.141c0-17.111,0-33.565,0-50.262c16.782,0,33.336,0,50.124,0c0,16.775,0,33.355,0,50.262
		C277.448,358.141,260.785,358.141,244.058,358.141z M281.984,320.129c-8.821,0-17.236,0-25.721,0c0,8.727,0,17.168,0,25.862
		c8.651,0,17.075,0,25.721,0C281.984,337.341,281.984,328.898,281.984,320.129z"/>
	<path fill="#FFFFFF" d="M305.765,358.139c0-16.863,0-33.438,0-50.246c16.761,0,33.306,0,50.086,0c0,16.772,0,33.346,0,50.246
		C339.262,358.139,322.719,358.139,305.765,358.139z M343.664,320.068c-8.635,0-17.058,0-25.633,0c0,8.758,0,17.289,0,25.879
		c8.731,0,17.159,0,25.633,0C343.664,337.199,343.664,328.745,343.664,320.068z"/>
	<path fill="#FFFFFF" d="M367.41,358.136c0-16.866,0-33.444,0-50.263c16.779,0,33.331,0,50.13,0c0,16.777,0,33.355,0,50.263
		C400.962,358.136,384.413,358.136,367.41,358.136z M379.603,345.898c8.892,0,17.307,0,25.726,0c0-8.793,0-17.234,0-25.809
		c-8.675,0-17.1,0-25.726,0C379.603,328.792,379.603,337.244,379.603,345.898z"/>
	<path fill="#FFFFFF" d="M417.61,370.205c0,16.84,0,33.304,0,50.031c-16.732,0-33.294,0-50.143,0c0-16.643,0-33.198,0-50.031
		C384.124,370.205,400.688,370.205,417.61,370.205z M405.417,382.402c-8.79,0-17.233,0-25.752,0c0,8.697,0,17.133,0,25.641
		c8.713,0,17.156,0,25.752,0C405.417,399.448,405.417,391.105,405.417,382.402z"/>
	<path fill="#FFFFFF" d="M305.707,420.173c0-16.653,0-33.118,0-49.911c16.593,0,33.156,0,50.051,0c0,16.454,0,33.018,0,49.911
		C339.313,420.173,322.752,420.173,305.707,420.173z M317.949,382.354c0,8.645,0,17.076,0,25.724c8.621,0,17.053,0,25.708,0
		c0-8.647,0-17.081,0-25.724C335.029,382.354,326.598,382.354,317.949,382.354z"/>
	<path fill="#FFFFFF" d="M294.09,420.324c-16.681,0-33.146,0-49.922,0c0-16.621,0-33.18,0-50.051c16.473,0,33.033,0,49.922,0
		C294.09,386.742,294.09,403.303,294.09,420.324z M282.059,382.43c-8.867,0-17.306,0-25.734,0c0,8.728,0,17.164,0,25.586
		c8.73,0,17.173,0,25.734,0C282.059,399.396,282.059,391.055,282.059,382.43z"/>
	<path fill="#FFFFFF" d="M143.715,276.967c0,3.835,0,7.545,0,11.568c-8.699,0-17.341,0-26.193,0c0-3.833,0-7.549,0-11.568
		C126.195,276.967,134.842,276.967,143.715,276.967z"/>
	<path fill="#FFFFFF" d="M406.625,132.464c-4.169,0.211-7.897,0.402-12.127,0.618c-0.423-9.519-0.833-18.737-1.262-28.391
		c4.183,0,8,0,12.174,0C405.807,113.787,406.206,122.9,406.625,132.464z"/>
	<path fill="#FFFFFF" d="M210.917,327.261c0,4.048,0,7.771,0,11.718c-12.482,0-24.726,0-37.312,0c0-3.776,0-7.602,0-11.718
		C185.873,327.261,198.229,327.261,210.917,327.261z"/>
	<path fill="#FFFFFF" d="M159.234,338.971c-5.689,0-11.129,0-16.816,0c0-3.912,0-7.623,0-11.656c5.504,0,11.046,0,16.816,0
		C159.234,331.084,159.234,334.796,159.234,338.971z"/>
	<path fill="#FFFFFF" d="M211.197,401.073c-12.894,0-25.157,0-37.679,0c0-3.897,0-7.628,0-11.826
		c1.396-0.062,2.826-0.174,4.256-0.177c9.741-0.022,19.487,0.131,29.223-0.112c3.474-0.084,4.568,1.056,4.245,4.366
		C211.009,395.715,211.197,398.146,211.197,401.073z"/>
	<path fill="#FFFFFF" d="M159.263,389.386c0,3.905,0,7.617,0,11.595c-5.638,0-11.078,0-16.826,0c0-3.83,0-7.528,0-11.595
		C148.01,389.386,153.55,389.386,159.263,389.386z"/>
</g>
</svg>
