<?xml version="1.0" encoding="utf-8"?>
<!-- Generator: Adobe Illustrator 16.0.0, SVG Export Plug-In . SVG Version: 6.00 Build 0)  -->
<!DOCTYPE svg PUBLIC "-//W3C//DTD SVG 1.1//EN" "http://www.w3.org/Graphics/SVG/1.1/DTD/svg11.dtd">
<svg version="1.1" id="Capa_1" xmlns="http://www.w3.org/2000/svg" xmlns:xlink="http://www.w3.org/1999/xlink" x="0px" y="0px"
	 width="500px" height="500px" viewBox="0 0 500 500" enable-background="new 0 0 500 500" xml:space="preserve">
<g>
	<path fill="#FFFFFF" d="M234.978,45.183c19.202,0,38.403,0,57.604,0c0.164,0.196,0.289,0.491,0.496,0.574
		c12.224,4.85,16.244,10.766,16.25,23.955c0.004,10.929-0.063,21.86,0.048,32.788c0.024,2.496,0.195,5.153,1.058,7.45
		c3.804,10.118,16.355,12.349,24.617,4.337c8.419-8.164,16.598-16.577,24.915-24.846c10.102-10.04,22.751-10.069,32.854-0.035
		c10.593,10.519,21.153,21.07,31.666,31.668c10.207,10.292,10.129,22.413-0.149,32.742c-7.991,8.03-16.066,15.977-24.002,24.063
		c-1.745,1.778-3.464,3.8-4.481,6.034c-4.468,9.792,2.608,20.318,13.829,20.487c12.26,0.186,24.524-0.016,36.786,0.076
		c9.203,0.068,16.086,4.104,20.229,12.466c0.688,1.391,1.27,2.836,1.899,4.256c0,19.202,0,38.403,0,57.604
		c-0.195,0.164-0.489,0.289-0.572,0.497c-4.85,12.223-10.768,16.243-23.958,16.249c-10.931,0.004-21.86-0.019-32.79,0.007
		c-8.21,0.019-13.198,2.95-15.665,9.307c-2.668,6.875-0.284,12.408,4.673,17.305c8.061,7.961,16.06,15.986,24.052,24.018
		c10.278,10.33,10.357,22.457,0.15,32.744c-10.517,10.596-21.086,21.139-31.681,31.657c-10.114,10.041-22.741,10.019-32.844-0.03
		c-8.033-7.988-15.979-16.068-24.065-24.002c-1.777-1.746-3.802-3.463-6.035-4.48c-9.797-4.465-20.313,2.607-20.481,13.832
		c-0.187,12.26,0.018,24.525-0.075,36.787c-0.068,9.204-4.106,16.088-12.47,20.229c-1.391,0.688-2.833,1.269-4.253,1.897
		c-19.201,0-38.401,0-57.604,0c-0.164-0.196-0.288-0.49-0.497-0.573c-12.223-4.85-16.244-10.768-16.249-23.957
		c-0.004-10.931,0.061-21.86-0.048-32.789c-0.025-2.497-0.196-5.153-1.061-7.451c-3.803-10.112-16.376-12.35-24.626-4.343
		c-8.416,8.169-16.591,16.586-24.908,24.857c-10.131,10.074-22.705,10.105-32.842,0.041c-10.593-10.519-21.154-21.07-31.667-31.67
		c-10.213-10.297-10.14-22.414,0.138-32.742c7.992-8.031,16.068-15.979,24.003-24.064c1.745-1.779,3.465-3.801,4.485-6.033
		c4.47-9.789-2.606-20.322-13.825-20.492c-12.26-0.188-24.525,0.016-36.788-0.076c-9.204-0.068-16.087-4.104-20.231-12.467
		c-0.689-1.391-1.27-2.834-1.9-4.256c0-19.201,0-38.403,0-57.604c0.196-0.164,0.491-0.289,0.574-0.497
		c4.85-12.222,10.766-16.244,23.956-16.248c10.93-0.004,21.86,0.061,32.789-0.049c2.497-0.024,5.153-0.195,7.451-1.059
		c10.114-3.802,12.352-16.376,4.345-24.625c-8.167-8.417-16.582-16.593-24.856-24.907c-10.278-10.328-10.353-22.448-0.143-32.743
		c10.513-10.599,21.073-21.15,31.667-31.669c10.102-10.031,22.752-9.998,32.856,0.045c8.036,7.987,15.984,16.062,24.073,23.994
		c1.779,1.745,3.795,3.47,6.029,4.49c9.823,4.488,20.307-2.563,20.479-13.83c0.187-12.26-0.016-24.526,0.076-36.787
		c0.068-9.205,4.104-16.087,12.466-20.23C232.112,46.394,233.558,45.813,234.978,45.183z M263.557,439.627
		c7.465,0,14.93,0.019,22.396-0.005c6.188-0.02,8.181-1.969,8.194-8.085c0.027-11.73-0.326-23.479,0.168-35.189
		c0.213-5.047,1.194-10.505,3.457-14.945c9.2-18.051,32.737-21.227,47.754-6.713c8.528,8.244,16.793,16.766,25.205,25.133
		c4.4,4.38,7.049,4.369,11.508-0.072c10.485-10.441,20.952-20.902,31.392-31.393c4.367-4.389,4.319-7.035-0.132-11.506
		c-8.182-8.222-16.42-16.387-24.587-24.621c-9.47-9.549-12.229-20.707-7.313-33.332c4.616-11.858,15.221-18.467,29.056-18.514
		c11.599-0.039,23.196,0.014,34.796-0.018c5.912-0.018,7.938-2.039,7.95-7.926c0.024-14.799,0.018-29.596,0.004-44.395
		c-0.007-6.489-1.871-8.388-8.273-8.402c-11.865-0.023-23.744,0.326-35.588-0.175c-4.906-0.207-10.203-1.304-14.521-3.542
		c-17.981-9.317-21.008-32.763-6.428-47.802c8.26-8.518,16.774-16.785,25.137-25.202c4.199-4.226,4.19-6.938-0.063-11.217
		c-10.526-10.589-21.077-21.154-31.661-31.685c-4.215-4.193-6.947-4.146-11.227,0.11c-8.32,8.272-16.554,16.632-24.91,24.865
		c-9.582,9.439-20.883,12.298-33.351,7.053c-12.444-5.236-18.376-15.219-18.362-28.724c0.012-11.599,0.02-23.197-0.006-34.795
		c-0.015-6.177-1.975-8.143-8.131-8.15c-14.798-0.021-29.596-0.02-44.394,0c-6.348,0.008-8.207,1.934-8.216,8.467
		c-0.017,11.598,0.332,23.21-0.163,34.788c-0.216,5.048-1.189,10.506-3.45,14.948c-9.187,18.05-32.717,21.227-47.748,6.718
		c-8.536-8.239-16.8-16.759-25.214-25.124c-4.403-4.377-7.054-4.367-11.511,0.073c-10.485,10.442-20.952,20.902-31.391,31.392
		c-4.368,4.389-4.321,7.038,0.127,11.507c8.182,8.22,16.42,16.385,24.588,24.62c9.47,9.548,12.229,20.705,7.315,33.33
		c-4.615,11.861-15.226,18.472-29.053,18.515c-11.599,0.036-23.197-0.015-34.795,0.018c-5.913,0.016-7.942,2.04-7.952,7.924
		c-0.026,14.665-0.015,29.33-0.007,43.996c0.004,7.023,1.76,8.814,8.667,8.822c11.598,0.014,23.211-0.342,34.788,0.166
		c5.042,0.221,10.494,1.252,14.922,3.537c17.997,9.292,21.017,32.754,6.437,47.795c-8.257,8.52-16.773,16.785-25.136,25.202
		c-4.2,4.228-4.193,6.938,0.06,11.217c10.527,10.589,21.077,21.155,31.662,31.687c4.216,4.194,6.948,4.146,11.228-0.108
		c8.225-8.179,16.41-16.396,24.613-24.595c6.522-6.52,14.268-10.481,23.609-9.605c17.797,1.668,28.337,13.541,28.392,31.424
		c0.036,11.731-0.034,23.463,0.028,35.194c0.027,5.149,2.197,7.284,7.333,7.324C248.357,439.67,255.957,439.626,263.557,439.627z"/>
	<path fill="#FFFFFF" d="M263.73,181.82c37.632-0.046,68.093,30.326,68.229,68.031c0.139,37.741-30.59,68.469-68.331,68.331
		c-37.705-0.138-68.077-30.599-68.031-68.23C195.645,212.276,226.056,181.866,263.73,181.82z M316.787,250.175
		c0.137-29.344-23.53-53.123-52.934-53.181c-29.213-0.059-52.789,23.317-53.082,52.633c-0.292,29.289,23.294,53.164,52.733,53.381
		C292.816,303.223,316.649,279.59,316.787,250.175z"/>
</g>
</svg>
