<?xml version="1.0" encoding="utf-8"?>
<!-- Generator: Adobe Illustrator 16.0.0, SVG Export Plug-In . SVG Version: 6.00 Build 0)  -->
<!DOCTYPE svg PUBLIC "-//W3C//DTD SVG 1.1//EN" "http://www.w3.org/Graphics/SVG/1.1/DTD/svg11.dtd">
<svg version="1.1" id="Capa_1" xmlns="http://www.w3.org/2000/svg" xmlns:xlink="http://www.w3.org/1999/xlink" x="0px" y="0px"
	 width="500px" height="500px" viewBox="0 0 500 500" enable-background="new 0 0 500 500" xml:space="preserve">
<g>
	<path fill="#FFFFFF" d="M121.75,178.041c1.54-2.881,3.301-5.673,4.521-8.684c0.571-1.407,0.529-3.396,0.004-4.846
		c-1.077-2.981-2.667-5.778-4.608-9.824c3.365,0.511,5.754,0.567,7.937,1.269c4.008,1.289,7.084,0.608,9.706-2.868
		c1.387-1.839,3.389-3.215,5.113-4.8c0.398,0.153,0.796,0.306,1.195,0.46c0.354,2.85,0.841,5.691,1.024,8.552
		c0.171,2.68,1.123,4.467,3.77,5.546c2.688,1.096,5.175,2.69,7.749,4.067c0.082,0.403,0.163,0.806,0.244,1.208
		c-2.509,1.267-4.918,2.823-7.553,3.722c-3.107,1.062-4.457,2.908-4.667,6.129c-0.177,2.717-0.883,5.402-1.355,8.1
		c-0.449,0.124-0.899,0.248-1.348,0.371c-2.059-2.174-4.282-4.22-6.131-6.56c-1.672-2.118-3.537-2.56-6.042-2.034
		c-2.84,0.596-5.74,0.896-8.614,1.327C122.378,178.797,122.064,178.418,121.75,178.041z"/>
	<path fill="#FFFFFF" d="M90.895,231.008c3.239-1.367,5.953-2.804,8.839-3.645c2.58-0.75,3.796-2.168,4.326-4.703
		c0.594-2.847,1.526-5.622,2.312-8.426c0.393-0.124,0.786-0.248,1.18-0.374c1.623,1.987,3.571,3.792,4.792,6.001
		c1.925,3.479,4.559,4.362,8.281,3.759c2.338-0.378,4.777-0.14,8.426-0.198c-2.095,3.245-3.436,5.766-5.199,7.943
		c-2.014,2.489-2.397,4.755-0.871,7.678c1.251,2.394,1.894,5.107,3.223,8.857c-3.422-0.948-5.675-1.339-7.736-2.192
		c-3.792-1.57-7.073-1.639-9.952,1.828c-1.042,1.255-2.573,2.115-3.912,3.112c-1.916,1.428-3.219,0.592-2.871-1.457
		c1.391-8.176-2.07-13.391-9.378-16.55C91.942,232.466,91.69,231.921,90.895,231.008z"/>
	<path fill="#FFFFFF" d="M164.744,341.982c1.004,1.889,2.365,3.675,2.939,5.686c1.324,4.648,4.361,6.441,8.954,6.592
		c1.967,0.063,3.914,0.772,7.113,1.453c-2.75,2.721-4.606,4.9-6.807,6.646c-2.395,1.899-3.235,3.912-2.441,6.957
		c0.694,2.656,0.769,5.475,1.283,9.521c-2.868-1.422-4.927-2.067-6.521-3.31c-3.869-3.014-7.477-3.092-11.446-0.178
		c-1.563,1.146-3.629,1.611-6.515,2.83c0.635-3.943,0.945-7.054,1.68-10.056c0.59-2.41,0.13-4.05-1.777-5.705
		c-2.271-1.976-4.19-4.354-7.19-7.55c3.986-0.607,6.777-1.293,9.59-1.396c3.078-0.115,4.875-1.354,6.023-4.209
		c1.03-2.556,2.548-4.916,3.851-7.363C163.901,341.93,164.322,341.958,164.744,341.982z"/>
	<path fill="#FFFFFF" d="M210.804,111.059c-1.008,2.525-1.726,5.222-3.097,7.532c-1.827,3.078-0.953,5.437,0.818,8.081
		c1.443,2.156,2.415,4.626,3.596,6.956c-2.591,0.094-5.243,0.571-7.763,0.188c-3.423-0.521-5.852,0.223-7.79,3.205
		c-1.424,2.188-3.319,4.071-5.813,7.06c-1.173-4.364-1.82-7.586-2.953-10.626c-0.535-1.437-1.767-2.972-3.098-3.679
		c-2.878-1.531-6.023-2.556-10.253-4.272c3.691-2.392,6.178-4.333,8.948-5.698c2.346-1.157,3.042-2.73,3.057-5.156
		c0.018-3.016,0.362-6.028,0.565-9.043c0.365-0.177,0.73-0.354,1.095-0.53c2.39,1.967,4.881,3.824,7.133,5.937
		c1.78,1.669,3.416,2.203,5.85,1.325c2.818-1.017,5.846-1.453,8.782-2.141C210.189,110.484,210.497,110.771,210.804,111.059z"/>
	<path fill="#FFFFFF" d="M210.499,392.35c2.191-1.69,4.268-3.572,6.605-5.026c2.609-1.628,3.546-3.642,3.155-6.693
		c-0.359-2.825-0.183-5.718-0.268-9.835c3.497,2.395,6.031,3.867,8.251,5.719c2.286,1.907,4.363,1.938,7.039,0.823
		c2.583-1.079,5.453-1.47,8.196-2.163c-0.548,2.709-0.775,5.536-1.729,8.096c-1.085,2.906-0.686,5.019,1.434,7.272
		c1.938,2.063,3.412,4.565,5.759,7.795c-4.022,0.112-6.819,0.438-9.568,0.203c-3.141-0.271-5.001,0.981-6.467,3.623
		c-1.34,2.413-3.053,4.619-4.601,6.916c-0.397-0.017-0.797-0.026-1.196-0.043c-0.942-2.55-2.072-5.046-2.778-7.659
		c-0.862-3.188-2.529-5.02-5.958-5.51c-2.593-0.372-5.088-1.43-7.628-2.182C210.663,393.239,210.582,392.794,210.499,392.35z"/>
	<path fill="#FFFFFF" d="M121.283,324.564c-1.555-2.439-3.321-4.774-4.602-7.352c-1.244-2.504-2.849-3.615-5.704-3.557
		c-2.995,0.062-6.002-0.426-9.004-0.674c-0.142-0.371-0.285-0.741-0.429-1.115c1.965-2.309,3.811-4.731,5.93-6.887
		c1.849-1.885,2.247-3.719,1.387-6.235c-0.96-2.813-1.435-5.791-2.405-9.903c3.878,1.553,6.674,2.411,9.215,3.756
		c2.675,1.416,4.798,0.932,7.09-0.736c2.232-1.627,4.659-2.984,8.12-5.166c-0.127,3.324,0.133,5.488-0.353,7.466
		c-1.176,4.801,0.398,8.112,4.542,10.612c1.674,1.011,3.007,2.586,5.376,4.685c-4.032,1.071-6.904,2.123-9.864,2.535
		c-2.725,0.381-4.084,1.7-4.753,4.2c-0.761,2.839-1.651,5.644-2.486,8.464C122.657,324.626,121.97,324.596,121.283,324.564z"/>
	<path fill="#FFFFFF" d="M65.145,320.684c-2.857-14.248,0.469-27.936,4.302-41.424c3.175-11.168,2.017-21.453-2.913-31.844
		c-3.633-7.659-6.822-15.628-9.214-23.754c-5.132-17.429,0.686-31.916,13.503-43.962c5.811-5.46,11.851-10.687,17.956-15.817
		c6.071-5.103,9.76-11.449,11.483-19.161c2.049-9.174,3.933-18.428,6.732-27.383c4.582-14.663,14.163-24.675,29.497-28.259
		c4.866-1.137,9.879-1.731,14.856-2.296c5.495-0.622,11.02-1.009,16.542-1.345c8.438-0.512,15.636-3.738,22-9.253
		c7.19-6.23,14.307-12.597,21.933-18.26c13.227-9.822,27.678-10.654,42.327-3.574c7.627,3.688,15.012,8.044,22.033,12.796
		c9.031,6.111,18.618,8.041,29.343,6.898c9.184-0.979,18.498-1.722,27.699-1.313c15.785,0.702,27.094,9.133,34.107,23.038
		c4.231,8.386,7.869,17.086,11.479,25.767c3.102,7.456,8.114,12.941,15.016,17.053c7.961,4.745,15.979,9.473,23.478,14.895
		c14.072,10.176,20.002,24.264,17.5,41.453c-1.274,8.774-3.281,17.472-5.455,26.077c-2.207,8.745-1.539,16.931,2.044,25.236
		c4.026,9.327,7.967,18.77,10.856,28.484c4.517,15.179,0.147,28.599-10.721,39.727c-6.1,6.244-12.76,11.977-19.468,17.574
		c-7.133,5.956-11.609,13.188-13.351,22.365c-1.46,7.714-3.302,15.377-5.414,22.939c-5.563,19.928-19,30.575-39.424,32.604
		c-7.425,0.74-14.864,1.369-22.313,1.879c-8.565,0.583-15.85,3.867-22.295,9.513c-7.059,6.183-14.117,12.419-21.642,18.005
		c-13.507,10.037-28.188,10.666-43.02,3.303c-8.054-4-15.753-8.784-23.337-13.646c-7.734-4.958-15.878-6.68-25.004-5.86
		c-10.225,0.917-20.557,1.746-30.783,1.293c-15.521-0.688-26.491-9.283-33.378-22.854c-4.427-8.719-8.205-17.781-11.989-26.811
		c-2.98-7.111-7.941-12.211-14.479-16.018c-3.898-2.27-7.691-4.721-11.621-6.928c-9.638-5.415-18.119-12.15-24.657-21.162
		C67.952,327.335,66.548,324.007,65.145,320.684z M362.886,116.893c-0.008,0.004-0.017,0.007-0.022,0.011
		c-1.705-4.039-3.332-8.112-5.13-12.109c-6.019-13.372-16.122-20.406-31.059-19.627c-6.549,0.341-13.133,0.633-19.616,1.55
		c-14.101,1.992-26.668-1.234-38.479-9.172c-7.232-4.86-15.01-9.056-22.924-12.721c-8.725-4.038-17.609-2.846-25.267,2.86
		c-7.93,5.909-15.389,12.458-22.918,18.886c-8.011,6.84-17.153,10.763-27.659,11.578c-7.184,0.556-14.37,1.124-21.539,1.844
		c-18.053,1.816-26.411,9.077-30.808,26.771c-1.492,6.001-2.969,12.021-4.075,18.102c-2.293,12.608-8.437,22.694-18.407,30.779
		c-6.581,5.337-12.881,11.093-18.787,17.167c-7.52,7.731-9.819,17.239-6.43,27.516c2.697,8.181,5.894,16.238,9.479,24.071
		c5.512,12.039,6.379,24.152,2.886,36.899c-2.139,7.806-3.756,15.808-4.887,23.821c-1.631,11.563,2.56,21.186,12.005,27.973
		c7.203,5.178,14.827,9.805,22.494,14.282c9.845,5.753,16.89,13.731,21.141,24.29c2.6,6.456,5.303,12.874,8.09,19.254
		c7.056,16.162,16.753,22.143,34.283,21.105c6.421-0.383,12.862-0.748,19.235-1.58c12.461-1.627,23.66,1.238,34.188,8.027
		c7.454,4.809,15.149,9.338,23.091,13.273c9.686,4.801,19.424,3.904,28.076-2.658c7.473-5.665,14.596-11.811,21.67-17.979
		c8.158-7.115,17.484-11.188,28.282-11.971c6.802-0.494,13.69-0.586,20.37-1.798c6.37-1.155,12.992-2.625,18.656-5.581
		c7.789-4.063,10.701-12.238,12.836-20.341c1.706-6.478,3.242-13.012,4.481-19.592c2.296-12.181,8.246-21.958,17.854-29.817
		c6.66-5.447,13.104-11.234,19.123-17.379c7.534-7.693,9.958-17.203,6.56-27.482c-2.901-8.791-6.479-17.379-10.159-25.881
		c-4.629-10.695-5.718-21.501-2.774-32.827c1.975-7.602,3.739-15.28,5.138-23.006c2.524-13.955-2.119-25.16-13.979-33.039
		c-6.758-4.487-13.718-8.683-20.715-12.79c-9.584-5.623-16.475-13.464-20.551-23.804
		C365.454,122.808,364.141,119.862,362.886,116.893z"/>
	<path fill="#FFFFFF" d="M207.926,150.381c54.291-23.056,116.938,2.18,139.994,56.392c23.154,54.443-2.182,117.204-56.604,140.213
		c-54.31,22.961-116.97-2.413-139.896-56.651C128.427,235.933,153.664,173.423,207.926,150.381z M213.385,162.012
		c-47.704,19.867-70.262,75.038-50.271,122.949c19.932,47.771,74.976,70.295,122.917,50.3
		c47.752-19.916,70.252-74.929,50.274-122.932C316.444,164.598,261.34,142.042,213.385,162.012z"/>
	<path fill="#FFFFFF" d="M365.65,215.418c0.209-3.023,0.218-6.08,0.688-9.063c0.391-2.487-0.332-4.066-2.344-5.508
		c-2.449-1.753-4.667-3.828-7.979-6.592c3.926-1.082,6.632-2.158,9.427-2.506c3.165-0.393,4.699-1.963,5.582-4.865
		c0.805-2.649,2.027-5.171,3.555-8.955c2.36,3.649,4.222,6.176,5.688,8.911c1.179,2.188,2.606,3.123,5.146,3.075
		c3.006-0.055,6.021,0.427,10.302,0.777c-2.346,2.916-3.729,5.179-5.628,6.868c-2.813,2.501-3.199,5.172-1.989,8.545
		c0.845,2.352,1.253,4.857,2.17,8.569c-3.781-1.465-6.547-2.263-9.041-3.574c-2.766-1.451-4.96-1.187-7.399,0.708
		c-2.171,1.687-4.695,2.916-7.063,4.348C366.394,215.912,366.023,215.666,365.65,215.418z"/>
	<path fill="#FFFFFF" d="M275.467,132.036c-2.511-1.718-5.143-3.289-7.496-5.201c-1.967-1.597-3.779-1.79-6.009-0.741
		c-2.717,1.278-5.522,2.362-8.291,3.531c-0.364-0.384-0.729-0.768-1.092-1.152c0.763-2.748,1.297-5.589,2.354-8.22
		c1.154-2.882,0.556-4.987-1.44-7.25c-1.806-2.048-3.116-4.533-4.647-6.826c2.808-0.381,5.625-1.098,8.425-1.056
		c3.078,0.046,5.035-0.963,6.485-3.681c1.298-2.428,3.041-4.618,5.058-7.606c1.599,3.79,3.039,6.591,3.949,9.557
		c0.687,2.235,1.723,3.427,4.063,3.922c3.08,0.65,6.071,1.727,9.103,2.621c0.11,0.414,0.223,0.827,0.336,1.241
		c-1.951,1.507-3.791,3.202-5.884,4.478c-3.196,1.947-4.694,4.353-3.938,8.25c0.476,2.433,0.199,5.013,0.262,7.526
		C276.291,131.63,275.88,131.833,275.467,132.036z"/>
	<path fill="#FFFFFF" d="M331.88,161.769c-1.316-2.694-2.852-5.308-3.895-8.106c-0.939-2.519-2.485-3.588-5.077-3.853
		c-2.978-0.306-5.918-0.964-8.873-1.469c-0.111-0.405-0.227-0.808-0.337-1.211c1.937-1.935,3.693-4.105,5.854-5.742
		c2.617-1.982,3.302-4.243,2.593-7.333c-0.59-2.577-0.794-5.242-1.361-9.24c3.08,1.503,5.315,2.252,7.149,3.564
		c3.546,2.54,6.76,2.924,10.425,0.137c1.72-1.308,4.054-1.811,7.223-3.148c-0.724,3.987-1.078,6.976-1.843,9.855
		c-0.678,2.552-0.137,4.359,1.851,6.104c2.187,1.918,4.081,4.166,6.976,7.174c-3.747,0.677-6.49,1.487-9.263,1.593
		c-3.229,0.123-5.152,1.368-6.353,4.385c-0.978,2.459-2.477,4.711-3.743,7.057C332.763,161.614,332.322,161.69,331.88,161.769z"/>
	<path fill="#FFFFFF" d="M351.171,354.715c-0.438-3.011-1.045-6.011-1.264-9.038c-0.172-2.354-1.16-3.704-3.285-4.677
		c-2.84-1.303-5.529-2.938-9.337-4.998c3.62-1.852,5.982-3.381,8.563-4.303c3.083-1.096,4.45-2.942,4.629-6.191
		c0.146-2.623,0.891-5.213,1.617-9.167c2.828,2.835,5.018,4.677,6.768,6.868c1.907,2.395,3.981,3.145,6.967,2.441
		c2.701-0.643,5.521-0.774,9.712-1.313c-1.943,3.664-3.146,6.425-4.788,8.892c-1.567,2.348-1.563,4.336-0.158,6.725
		c1.462,2.48,2.563,5.179,3.822,7.781c-0.208,0.361-0.415,0.726-0.623,1.088c-2.424-0.396-4.952-0.486-7.25-1.262
		c-3.815-1.287-6.573-0.336-9.026,2.754c-1.463,1.846-3.396,3.313-5.119,4.953C351.987,355.082,351.579,354.898,351.171,354.715z"/>
	<path fill="#FFFFFF" d="M406.324,272.391c-3.582,1.51-5.85,2.771-8.276,3.418c-3.541,0.94-5.371,2.928-5.859,6.58
		c-0.319,2.36-1.27,4.639-2.29,8.187c-2.649-3.216-4.816-5.46-6.515-8.021c-1.479-2.23-3.169-2.949-5.768-2.658
		c-2.977,0.332-5.997,0.23-8.996,0.318c-0.201-0.374-0.402-0.746-0.604-1.119c1.558-2.277,2.961-4.68,4.71-6.8
		c1.935-2.342,2.349-4.567,1.017-7.376c-1.146-2.42-1.827-5.061-2.972-8.331c1.757,0.122,3.217-0.174,4.245,0.36
		c6.236,3.226,11.456,2.074,15.972-3.178c0.56-0.651,1.461-1.021,2.235-1.467c0.182-0.104,0.493,0.027,1.551,0.125
		c0.112,2.846,0.488,5.838,0.278,8.784c-0.204,2.856,0.873,4.479,3.283,5.812C400.855,268.415,403.143,270.223,406.324,272.391z"/>
	<path fill="#FFFFFF" d="M305.964,359.811c1.493,5.184,1.605,9.969,4.025,12.748c2.413,2.773,7.137,3.539,11.914,5.655
		c-3.111,2.063-5.319,3.955-7.858,5.104c-3.084,1.391-3.989,3.509-3.918,6.656c0.064,2.721-0.338,5.451-0.624,9.422
		c-3.365-2.771-5.849-4.537-7.983-6.654c-1.883-1.867-3.638-2.32-6.183-1.424c-2.813,0.992-5.819,1.429-10.008,2.396
		c1.61-3.954,2.598-6.813,3.922-9.498c1.149-2.33,1.11-4.181-0.558-6.322c-1.784-2.283-3.101-4.937-5.267-8.49
		c2.897,0.039,4.905-0.297,6.714,0.16c5.01,1.268,8.606-0.146,11.229-4.646C302.337,363.264,303.964,361.993,305.964,359.811z"/>
	<path fill="#FFFFFF" d="M203.839,252.609l-9.865,3.557l9.673,26.832l-6.637,2.393l-9.673-26.832l-9.733,3.508l-1.938-5.375
		l26.235-9.457L203.839,252.609z"/>
	<path fill="#FFFFFF" d="M224.968,261.99l-5.287,1.906l4.25,11.789l-6.637,2.393l-11.61-32.208l11.968-4.314
		c1.857-0.67,3.6-1.061,5.227-1.171c1.626-0.112,3.096,0.058,4.408,0.51c1.313,0.453,2.459,1.185,3.441,2.197
		c0.981,1.012,1.759,2.315,2.333,3.908c0.425,1.18,0.674,2.286,0.746,3.317c0.072,1.033-0.011,2.005-0.249,2.916
		c-0.238,0.91-0.613,1.766-1.124,2.566c-0.512,0.803-1.137,1.561-1.879,2.276l11.713,10.649l0.111,0.311l-7.123,2.566
		L224.968,261.99z M217.744,258.521l5.353-1.931c0.87-0.313,1.592-0.702,2.166-1.168c0.573-0.465,1.002-0.987,1.286-1.563
		c0.283-0.576,0.431-1.197,0.442-1.858c0.011-0.663-0.114-1.354-0.374-2.078c-0.548-1.519-1.41-2.558-2.586-3.118
		c-1.177-0.559-2.657-0.518-4.441,0.126l-5.331,1.921L217.744,258.521z"/>
	<path fill="#FFFFFF" d="M258.975,226.661l7.662,21.259c0.67,1.858,0.952,3.609,0.846,5.257c-0.106,1.646-0.532,3.146-1.278,4.497
		c-0.745,1.354-1.786,2.543-3.123,3.575c-1.336,1.032-2.896,1.87-4.681,2.513c-1.799,0.648-3.543,1.002-5.229,1.061
		c-1.686,0.058-3.249-0.194-4.687-0.762c-1.437-0.563-2.717-1.447-3.842-2.649c-1.125-1.203-2.023-2.731-2.693-4.593l-7.663-21.257
		l6.637-2.392l7.663,21.259c0.761,2.109,1.819,3.465,3.179,4.065c1.357,0.603,2.93,0.582,4.715-0.062
		c1.799-0.648,3.021-1.637,3.668-2.961c0.647-1.324,0.593-3.041-0.168-5.151l-7.664-21.259L258.975,226.661z"/>
	<path fill="#FFFFFF" d="M289.682,242.438c-0.201-0.561-0.465-1.037-0.789-1.428c-0.324-0.392-0.789-0.695-1.392-0.911
		c-0.603-0.215-1.38-0.361-2.331-0.434c-0.951-0.074-2.15-0.083-3.597-0.029c-1.646,0.06-3.228,0.03-4.744-0.09
		c-1.519-0.119-2.912-0.403-4.183-0.854c-1.271-0.45-2.379-1.097-3.323-1.939c-0.945-0.842-1.671-1.964-2.175-3.365
		c-0.484-1.343-0.635-2.675-0.455-3.999c0.182-1.324,0.658-2.565,1.432-3.727c0.771-1.163,1.807-2.223,3.104-3.182
		c1.295-0.958,2.813-1.752,4.554-2.379c1.784-0.644,3.495-0.981,5.134-1.013c1.639-0.032,3.133,0.208,4.484,0.721
		c1.351,0.513,2.525,1.276,3.524,2.291c0.999,1.014,1.759,2.245,2.28,3.689l-6.637,2.393c-0.244-0.678-0.578-1.265-1-1.764
		c-0.42-0.499-0.926-0.873-1.519-1.127c-0.591-0.253-1.26-0.374-2.006-0.364c-0.746,0.011-1.567,0.178-2.468,0.502
		c-0.871,0.314-1.592,0.682-2.164,1.105c-0.573,0.423-1.008,0.879-1.307,1.37c-0.299,0.492-0.472,1.003-0.521,1.538
		c-0.05,0.534,0.019,1.06,0.205,1.575c0.383,1.063,1.245,1.756,2.587,2.079c1.342,0.325,3.172,0.419,5.488,0.284
		c1.951-0.086,3.715-0.039,5.289,0.143c1.572,0.182,2.957,0.534,4.154,1.053c1.193,0.519,2.209,1.219,3.043,2.102
		c0.836,0.883,1.491,1.987,1.971,3.314c0.51,1.416,0.688,2.776,0.533,4.082c-0.153,1.306-0.604,2.521-1.348,3.648
		c-0.744,1.126-1.762,2.151-3.054,3.075c-1.291,0.924-2.821,1.705-4.591,2.344c-1.063,0.383-2.157,0.672-3.285,0.871
		c-1.129,0.199-2.245,0.28-3.35,0.245c-1.104-0.036-2.174-0.192-3.207-0.47c-1.032-0.278-1.996-0.697-2.891-1.258
		c-0.895-0.562-1.693-1.277-2.396-2.146c-0.707-0.871-1.276-1.911-1.713-3.12l6.658-2.4c0.351,0.973,0.803,1.744,1.357,2.31
		c0.554,0.566,1.184,0.96,1.889,1.182c0.704,0.221,1.48,0.286,2.332,0.196c0.852-0.09,1.756-0.308,2.715-0.654
		c0.854-0.308,1.566-0.668,2.135-1.082c0.567-0.414,0.998-0.857,1.295-1.33c0.296-0.473,0.463-0.97,0.5-1.492
		C289.941,243.473,289.867,242.953,289.682,242.438z"/>
	<path fill="#FFFFFF" d="M318.448,211.295l-9.866,3.556l9.673,26.833l-6.636,2.393l-9.673-26.833l-9.733,3.508l-1.938-5.375
		l26.234-9.457L318.448,211.295z"/>
</g>
</svg>
