<?xml version="1.0" encoding="utf-8"?>
<!-- Generator: Adobe Illustrator 16.0.0, SVG Export Plug-In . SVG Version: 6.00 Build 0)  -->
<!DOCTYPE svg PUBLIC "-//W3C//DTD SVG 1.1//EN" "http://www.w3.org/Graphics/SVG/1.1/DTD/svg11.dtd">
<svg version="1.1" id="Capa_1" xmlns="http://www.w3.org/2000/svg" xmlns:xlink="http://www.w3.org/1999/xlink" x="0px" y="0px"
	 width="500px" height="500px" viewBox="0 0 500 500" enable-background="new 0 0 500 500" xml:space="preserve">
<g>
	<g>
		<g>
			<path fill="#FFFFFF" d="M448.134,129.782l-195.392-94.33c-1.733-0.833-3.75-0.833-5.482,0l-195.394,94.33
				c-2.178,1.051-3.563,3.258-3.563,5.677v229.083c0,2.418,1.385,4.625,3.563,5.676l195.394,94.329
				c0.865,0.417,1.804,0.626,2.74,0.626c0.938,0,1.874-0.209,2.742-0.626l195.392-94.329c2.182-1.051,3.563-3.258,3.563-5.676
				V135.459C451.696,133.04,450.314,130.835,448.134,129.782z M250,48.132l180.895,87.328l-52.438,25.315
				c-0.331-0.255-0.681-0.488-1.066-0.674L197.724,73.368L250,48.132z M183.487,80.496l180.631,87.201l-36.997,17.859L146.567,98.39
				L183.487,80.496z M368.344,179.655v66.02l-34.557,16.685v-66.021L368.344,179.655z M439.091,360.587l-182.786,88.238V233.744
				l43.601-21.05c3.136-1.513,4.45-5.281,2.935-8.418c-1.513-3.133-5.279-4.449-8.416-2.936L250,222.787l-17.479-8.439
				c-3.135-1.515-6.903-0.2-8.417,2.935c-1.515,3.135-0.199,6.905,2.936,8.418l16.657,8.043v215.081L60.911,360.583V145.501
				l139.19,67.195c0.883,0.429,1.816,0.63,2.735,0.63c2.344,0,4.595-1.314,5.681-3.566c1.514-3.133,0.2-6.903-2.936-8.416
				L69.106,135.459l62.623-30.232l189.364,91.417c0.027,0.038,0.06,0.074,0.087,0.111V272.4c0,2.17,1.115,4.186,2.953,5.342
				c1.021,0.64,2.187,0.964,3.353,0.964c0.936,0,1.873-0.208,2.74-0.629l47.164-22.769c2.181-1.052,3.563-3.258,3.563-5.678V173.57
				l58.14-28.066L439.091,360.587L439.091,360.587z"/>
		</g>
	</g>
	<g>
		<g>
			<path fill="#FFFFFF" d="M112.933,336.136L84.26,322.293c-3.137-1.516-6.905-0.197-8.417,2.936c-1.515,3.138-0.2,6.904,2.935,8.42
				l28.675,13.842c0.883,0.426,1.816,0.63,2.735,0.63c2.344,0,4.596-1.313,5.682-3.565
				C117.383,341.418,116.069,337.65,112.933,336.136z"/>
		</g>
	</g>
	<g>
		<g>
			<path fill="#FFFFFF" d="M139.323,318.958L84.3,292.395c-3.138-1.513-6.905-0.199-8.418,2.937
				c-1.513,3.137-0.198,6.903,2.936,8.42l55.025,26.563c0.883,0.427,1.818,0.629,2.736,0.629c2.343,0,4.593-1.315,5.681-3.564
				C143.774,324.24,142.458,320.471,139.323,318.958z"/>
		</g>
	</g>
</g>
</svg>
