<?xml version="1.0" encoding="utf-8"?>
<!-- Generator: Adobe Illustrator 16.0.0, SVG Export Plug-In . SVG Version: 6.00 Build 0)  -->
<!DOCTYPE svg PUBLIC "-//W3C//DTD SVG 1.1//EN" "http://www.w3.org/Graphics/SVG/1.1/DTD/svg11.dtd">
<svg version="1.1" id="Capa_1" xmlns="http://www.w3.org/2000/svg" xmlns:xlink="http://www.w3.org/1999/xlink" x="0px" y="0px"
	 width="500px" height="500px" viewBox="0 0 500 500" enable-background="new 0 0 500 500" xml:space="preserve">
<g>
	<g>
		<g>
			<path fill="#FFFFFF" d="M379.934,122.307c-34.707-34.707-80.851-53.82-129.933-53.82c-49.083,0-95.227,19.113-129.933,53.82
				c-34.708,34.707-53.821,80.85-53.821,129.932c0,49.083,19.113,95.227,53.821,129.934c34.706,34.705,80.85,53.819,129.933,53.819
				c49.082,0,95.226-19.114,129.933-53.819c34.704-34.707,53.819-80.851,53.819-129.934S414.638,157.013,379.934,122.307z
				 M250.001,421.351c-93.249,0-169.112-75.862-169.112-169.111c0-93.25,75.863-169.112,169.112-169.112
				c93.248,0,169.111,75.864,169.111,169.112C419.112,345.486,343.249,421.351,250.001,421.351z"/>
		</g>
	</g>
	<g>
		<g>
			<path fill="#FFFFFF" d="M397.96,282.479c-3.925-1-7.906,1.369-8.903,5.287c-4.083,16.036-10.88,31.137-20.199,44.883
				c-2.269,3.348-1.394,7.898,1.952,10.168c1.259,0.854,2.688,1.262,4.104,1.262c2.345,0,4.648-1.125,6.063-3.213
				c10.274-15.152,17.767-31.803,22.271-49.485C404.244,287.462,401.879,283.477,397.96,282.479z"/>
		</g>
	</g>
	<g>
		<g>
			<path fill="#FFFFFF" d="M400.81,244.917c-4.043,0-7.32,3.278-7.32,7.321c0,2.094-0.043,4.201-0.138,6.273
				c-0.173,4.038,2.96,7.454,7.001,7.627c0.107,0.006,0.214,0.01,0.32,0.01c3.897,0,7.141-3.073,7.309-7.004
				c0.101-2.281,0.15-4.604,0.15-6.906C408.132,248.196,404.851,244.917,400.81,244.917z"/>
		</g>
	</g>
	<g>
		<g>
			<path fill="#FFFFFF" d="M250.001,192.575c-14.129,0-25.623,11.493-25.623,25.621V345.58c0,14.127,11.494,25.621,25.623,25.621
				c14.128,0,25.619-11.494,25.619-25.621V218.196C275.62,204.066,264.129,192.575,250.001,192.575z M260.979,345.58
				c0,6.053-4.924,10.98-10.979,10.98c-6.056,0-10.981-4.929-10.981-10.98V218.196c0-6.055,4.926-10.982,10.981-10.982
				c6.055,0,10.979,4.927,10.979,10.982V345.58z"/>
		</g>
	</g>
	<g>
		<g>
			<path fill="#FFFFFF" d="M268.111,140.772c-4.773-4.767-11.377-7.497-18.11-7.497c-6.736,0-13.34,2.73-18.122,7.502
				c-4.768,4.769-7.501,11.373-7.501,18.12c0,6.735,2.732,13.337,7.507,18.124c4.776,4.765,11.38,7.499,18.116,7.499
				c6.737,0,13.34-2.733,18.123-7.509c4.767-4.774,7.496-11.378,7.496-18.113C275.62,152.151,272.889,145.547,268.111,140.772z
				 M257.771,166.66c-2.051,2.045-4.885,3.221-7.771,3.221c-2.89,0-5.723-1.175-7.763-3.21c-2.044-2.051-3.219-4.883-3.219-7.771
				c0-2.895,1.172-5.725,3.208-7.762c2.051-2.045,4.884-3.22,7.773-3.22c2.889,0,5.721,1.174,7.766,3.215
				c2.045,2.042,3.213,4.872,3.213,7.767C260.979,161.787,259.807,164.619,257.771,166.66z"/>
		</g>
	</g>
</g>
</svg>
