<?xml version="1.0" encoding="utf-8"?>
<!-- Generator: Adobe Illustrator 16.0.0, SVG Export Plug-In . SVG Version: 6.00 Build 0)  -->
<!DOCTYPE svg PUBLIC "-//W3C//DTD SVG 1.1//EN" "http://www.w3.org/Graphics/SVG/1.1/DTD/svg11.dtd">
<svg version="1.1" id="Capa_1" xmlns="http://www.w3.org/2000/svg" xmlns:xlink="http://www.w3.org/1999/xlink" x="0px" y="0px"
	 width="500px" height="500px" viewBox="0 0 500 500" enable-background="new 0 0 500 500" xml:space="preserve">
<path fill="#D6D6D6" d="M183.526,106.308h120.373c2.024,0,3.67-1.646,3.67-3.669c0-28.023-0.041-56.899-49.357-61.476
	c-0.275-3.388-6.668-6.128-14.499-6.128s-14.224,2.74-14.495,6.128c-49.318,4.577-49.359,33.453-49.359,61.476
	C179.856,104.663,181.498,106.308,183.526,106.308z M243.711,47.855c54.234,0,56.422,22.266,56.512,51.113h-32.541
	c-0.264-5.601-6.723-10.132-14.625-10.132h-18.688c-7.904,0-14.363,4.532-14.627,10.132H187.2
	C187.284,70.125,189.476,47.855,243.711,47.855z"/>
<path fill="#D6D6D6" d="M256.834,209.829c20.17-5.757,42.545-24.468,46.023-58.384c6.425-3.104,15.684-11.55,15.229-27.035
	c-0.085-2.788-0.33-11.277-6.202-13.494c-5.823-2.198-11.919,3.899-13.082,5.14c-1.385,1.481-1.311,3.8,0.173,5.188
	c1.482,1.386,3.808,1.309,5.188-0.173c1.622-1.739,4.315-3.493,5.104-3.294c0.014,0.011,1.313,1.024,1.484,6.854
	c0.473,16.092-11.869,20.567-12.372,20.742c-1.159,0.389-2.058,1.333-2.378,2.513l-0.193,0.705c-0.06,0.216-0.1,0.439-0.117,0.665
	c-3.496,41.699-36.53,55.192-51.979,55.192c-15.446,0-48.482-13.49-51.979-55.19c-0.018-0.223-0.059-0.447-0.117-0.663l-0.195-0.705
	c-0.322-1.185-1.214-2.129-2.378-2.514c-0.128-0.041-12.848-4.471-12.371-20.741c0.173-5.81,1.464-6.838,1.446-6.838
	c0.741-0.161,3.325,1.358,5.142,3.281c1.383,1.475,3.706,1.552,5.189,0.173c1.479-1.386,1.555-3.71,0.173-5.189
	c-1.164-1.245-7.267-7.33-13.083-5.138c-5.872,2.219-6.121,10.705-6.202,13.495c-0.456,15.485,8.803,23.93,15.229,27.026
	c3.217,31.407,22.645,49.771,41.52,56.89l0.951-0.68L256.834,209.829z"/>
<path fill="#D6D6D6" d="M195.772,203.61l2.185,24.812l12.809-9.148l-9.962,4.676l-1.396-25.488c-0.113-2.025-1.875-3.56-3.864-3.464
	c-2.022,0.111-3.575,1.842-3.464,3.864l0.279,5.087c-6.508,2.209-68.041,25.002-70.199,95.286
	C133.626,223.904,195.772,203.61,195.772,203.61z"/>
<path fill="#D6D6D6" d="M291.16,207.002c20.311,5.016,35.297,14.347,46.355,25.536c-17.403-18.473-37.729-26.653-43.147-28.6
	l0.278-5.076c0.109-2.021-1.44-3.753-3.465-3.864c-2.021-0.091-3.755,1.441-3.863,3.464l-1.354,24.738l4.253,1.054L291.16,207.002z"
	/>
<path fill="#D6D6D6" d="M282.496,222.341l-13.03-6.117c-0.862-0.406-1.803-0.435-2.647-0.171l4.924,3.624L282.496,222.341z"/>
<path fill="#D6D6D6" d="M250.604,124.362c-1.071,0-2.087,0.466-2.786,1.28c-0.305,0.357-0.499,0.775-0.65,1.208h-6.916
	c-0.151-0.434-0.346-0.851-0.65-1.208c-0.697-0.811-1.714-1.28-2.785-1.28h-35.549c-0.983,0-1.926,0.396-2.616,1.097
	c-0.69,0.701-1.068,1.652-1.053,2.635c0.051,2.937,0.616,17.835,6.687,22.768c3.816,3.098,9.791,5.025,15.596,5.025
	c5.486,0,10.074-1.718,12.921-4.834c3.262-3.574,5.417-11.354,6.602-16.862h8.616c1.186,5.508,3.338,13.289,6.603,16.862
	c2.844,3.119,7.437,4.834,12.921,4.834c5.811,0,11.784-1.927,15.598-5.025c6.069-4.933,6.641-19.828,6.689-22.768
	c0.014-0.983-0.364-1.934-1.055-2.635c-0.689-0.701-1.633-1.097-2.616-1.097H250.604z M227.38,146.103
	c-1.42,1.552-4.15,2.444-7.5,2.444c-4.073,0-8.481-1.361-10.973-3.384c-1.828-1.485-3.255-7.545-3.772-13.46h27.285
	C231.233,137.394,229.313,143.985,227.38,146.103z M278.511,145.162c-2.491,2.023-6.899,3.384-10.973,3.384
	c-3.351,0-6.081-0.892-7.496-2.444c-1.931-2.114-3.854-8.709-5.039-14.401h27.284C281.771,137.621,280.339,143.682,278.511,145.162z
	"/>
<path fill="#D6D6D6" d="M208.455,145.394c2.605,2.116,7.215,3.539,11.476,3.539c3.503,0,6.359-0.933,7.843-2.556
	c2.023-2.215,4.031-9.108,5.27-15.061h-28.535C205.05,137.502,206.543,143.839,208.455,145.394z"/>
<path fill="#D6D6D6" d="M259.531,146.458c1.498,1.644,4.392,2.589,7.941,2.589c4.314,0,8.984-1.442,11.625-3.585
	c1.936-1.569,3.452-7.988,3.998-14.259h-28.904C255.448,137.231,257.484,144.217,259.531,146.458z"/>
<path fill="#D6D6D6" d="M337.518,232.539c-11.061-11.188-30.185-24.054-46.227-26.554l-5.325,17.215l-28.31-14.444l-29.5-2.25
	l-27.594,18l-3.375-21.375c0,0-66.688,19.188-75.024,96.104c-0.496,3.257,0.373,17.954,0.373,17.954h4.006v-22.705
	c0-1.545,0.755-2.993,2.025-3.88c0.334-0.23,0.692-0.414,1.064-0.551l0.001-0.006l113.913-42.03c1.055-0.389,2.215-0.389,3.27,0
	l113.914,42.03c1.854,0.688,3.093,2.457,3.093,4.437v22.705h4.663C368.481,317.189,370.958,266.365,337.518,232.539z"/>
<path fill="#D6D6D6" d="M217.765,385.221c0,1.546-0.758,2.994-2.027,3.879c-0.803,0.561-1.748,0.85-2.701,0.85
	c-0.551,0-1.104-0.099-1.635-0.294l-51.05-18.835c-1.856-0.686-3.088-2.457-3.088-4.436v-57.271l-21.27-7.848v125.153
	l104.457,38.545V339.812l-22.687-8.373L217.765,385.221L217.765,385.221z"/>
<path fill="#D6D6D6" d="M354.362,301.267l-104.458,38.545v125.154l104.458-38.544V301.267z M279.146,444.052l-2.08,0.768
	c-0.539,0.2-1.094,0.295-1.64,0.295c-1.924,0-3.729-1.184-4.435-3.092c-0.904-2.45,0.35-5.167,2.8-6.071l2.08-0.769
	c2.448-0.904,5.168,0.349,6.069,2.801C282.85,440.431,281.596,443.148,279.146,444.052z M341.817,420.926l-49.154,18.139
	c-0.541,0.199-1.093,0.293-1.638,0.293c-1.922,0-3.729-1.182-4.436-3.091c-0.902-2.45,0.352-5.166,2.799-6.07l49.155-18.14
	c2.449-0.903,5.168,0.349,6.069,2.799C345.522,417.305,344.268,420.023,341.817,420.926z M341.817,401.668l-38.848,14.334
	c-0.536,0.196-1.094,0.291-1.635,0.291c-1.923,0-3.729-1.183-4.435-3.091c-0.903-2.45,0.347-5.168,2.795-6.071l38.849-14.334
	c2.449-0.9,5.168,0.35,6.069,2.799C345.522,398.045,344.268,400.762,341.817,401.668z M341.817,382.604l-38.848,14.335
	c-0.536,0.199-1.094,0.294-1.635,0.294c-1.923,0-3.729-1.183-4.435-3.093c-0.903-2.449,0.347-5.167,2.795-6.07l38.849-14.336
	c2.449-0.898,5.168,0.35,6.069,2.801C345.522,378.984,344.268,381.7,341.817,382.604z"/>
<path fill="#D6D6D6" d="M211.402,282.512c1.056-0.389,2.215-0.389,3.272,0l51.049,18.836c1.854,0.686,3.09,2.457,3.09,4.435
	c0,1.979-1.234,3.749-3.09,4.437l-39.082,14.42l18.538,6.842l100.254-36.994l-100.254-36.993l-100.257,36.993l17.018,6.278
	L211.402,282.512z"/>
<polygon fill="#D6D6D6" points="208.31,327.95 166.715,312.602 166.715,363.09 208.31,378.436 "/>
<polygon fill="#D6D6D6" points="213.037,319.58 250.431,305.782 213.037,291.985 175.644,305.783 "/>
</svg>
