<?xml version="1.0" encoding="utf-8"?>
<!-- Generator: Adobe Illustrator 16.0.0, SVG Export Plug-In . SVG Version: 6.00 Build 0)  -->
<!DOCTYPE svg PUBLIC "-//W3C//DTD SVG 1.1//EN" "http://www.w3.org/Graphics/SVG/1.1/DTD/svg11.dtd">
<svg version="1.1" id="Capa_1" xmlns="http://www.w3.org/2000/svg" xmlns:xlink="http://www.w3.org/1999/xlink" x="0px" y="0px"
	 width="500px" height="500px" viewBox="0 0 500 500" enable-background="new 0 0 500 500" xml:space="preserve">
<g>
	<path fill="#FFFFFF" d="M84.8,366.011c0.815-6.856,1.292-13.772,2.513-20.556c2.82-15.676,8.948-29.707,22.692-38.914
		c4.9-3.281,10.469-6.02,16.124-7.646c24.141-6.944,46.563-17.459,67.621-31.039c6.685-4.311,13.395-3.307,17.193,2.508
		c3.737,5.72,1.886,12.354-4.778,16.688c-21.786,14.165-44.866,25.735-70.028,32.407c-15.584,4.131-23.531,14.224-26.28,29.209
		c-2.688,14.655-2.405,29.44-0.933,44.224c0.299,3.002,1.55,4.852,4.427,6.313c26.455,13.454,54.479,22.155,83.592,27.27
		c47.698,8.38,95.261,7.402,142.479-3.629c23.011-5.376,45.333-12.833,66.235-24.058c1.494-0.803,3.195-2.671,3.391-4.221
		c2.156-17.278,2.707-34.584-1.979-51.567c-3.198-11.601-10.498-19.368-22.47-22.66c-26.148-7.188-50.336-18.744-72.981-33.596
		c-4.409-2.892-6.741-6.89-5.749-12.203c0.884-4.736,3.937-7.761,8.605-9.011c3.779-1.012,7.041,0.334,10.17,2.357
		c16.837,10.893,34.607,19.918,53.546,26.555c6.649,2.33,13.528,4.047,20.077,6.617c15.273,5.993,25.224,17.321,29.707,32.861
		c2.563,8.877,3.396,18.254,4.988,27.409c0.271,1.552,0.445,3.12,0.666,4.682c0,5.066,0,10.136,0,15.201
		c-0.539,5.146-1.197,10.282-1.589,15.438c-0.745,9.805-4.47,16.895-13.97,21.762c-36.639,18.772-75.498,29.489-116.23,33.992
		c-8.592,0.949-17.216,1.615-25.824,2.414c-11.469,0-22.936,0-34.404,0c-1.167-0.225-2.325-0.531-3.502-0.658
		c-13.094-1.399-26.265-2.276-39.272-4.245c-34.835-5.274-68.046-15.689-99.337-32.152c-7.325-3.854-11.465-9.11-12.366-17.188
		c-0.721-6.459-1.554-12.907-2.337-19.361C84.8,376.146,84.8,371.077,84.8,366.011z"/>
	<path fill="#FFFFFF" d="M265.615,45.183c3.916,0.616,7.861,1.079,11.742,1.872c38.457,7.852,62.725,33.537,68.059,72.692
		c3.59,26.354,3.131,52.652-3.873,78.51c-5.327,19.672-14.309,37.264-30.479,50.425c-15.865,12.914-34.447,17.595-54.438,17.136
		c-19.172-0.438-36.729-5.881-51.45-18.775c-12.571-11.013-20.666-24.937-25.928-40.586c-8.25-24.533-9.646-49.785-7.666-75.396
		c1.29-16.677,4.784-32.711,13.693-47.076c13.154-21.208,32.502-33.178,56.951-37.243c2.74-0.456,5.458-1.036,8.187-1.558
		C255.48,45.183,260.549,45.183,265.615,45.183z M324.8,145.647c-0.5-6.211-0.812-12.878-1.617-19.485
		c-1.435-11.752-4.692-22.96-11.509-32.828c-9.479-13.729-22.904-21.084-39.139-23.768c-18.664-3.085-36.511-1.151-52.397,9.833
		c-15.921,11.009-22.55,27.459-25.008,45.919c-2.479,18.609-2.244,37.224,1.02,55.731c2.86,16.214,7.955,31.613,19.277,44.044
		c15.944,17.505,36.429,20.34,58.343,16.335c21.649-3.957,34.367-18.519,42.146-38.071C323.23,184.97,324.75,165.63,324.8,145.647z"
		/>
</g>
</svg>
