<?xml version="1.0" encoding="utf-8"?>
<!-- Generator: Adobe Illustrator 16.0.0, SVG Export Plug-In . SVG Version: 6.00 Build 0)  -->
<!DOCTYPE svg PUBLIC "-//W3C//DTD SVG 1.1//EN" "http://www.w3.org/Graphics/SVG/1.1/DTD/svg11.dtd">
<svg version="1.1" id="Capa_1" xmlns="http://www.w3.org/2000/svg" xmlns:xlink="http://www.w3.org/1999/xlink" x="0px" y="0px"
	 width="500px" height="500px" viewBox="0 0 500 500" enable-background="new 0 0 500 500" xml:space="preserve">
<path fill="#FFFFFF" d="M22.261,198.875c1.787-1.273,3.48-2.712,5.376-3.795c15.103-8.621,30.247-17.172,45.37-25.758
	c1.319-0.749,2.582-1.6,4.499-2.795c-6.2-3.662-11.868-7.01-17.536-10.355c-7.353-4.343-14.798-8.536-21.989-13.131
	c-1.705-1.09-3.458-3.507-3.478-5.332c-0.013-1.204,2.87-3.105,4.734-3.564c41.428-10.184,82.883-20.259,124.385-30.139
	c2.293-0.547,5.375,0.149,7.504,1.327c12.863,7.117,25.597,14.473,38.271,21.927c2.56,1.505,4.356,1.391,6.765-0.301
	c12.167-8.547,24.535-16.806,36.664-25.404c3.236-2.297,6.369-3.019,10.184-2.36c8.723,1.504,17.461,2.969,26.241,4.068
	c16.187,2.817,0,0,16.187,2.817c9.408,1.315,17.87,2.594,26.367,3.571c12.223,2.346,0,0,12.223,2.346
	c13.249,2.138,25.32,4.124,37.408,6.025c24.832,3.906,49.682,7.709,74.488,11.757c2.044,0.334,3.834,2.219,5.743,3.383
	c-1.159,1.875-1.891,4.355-3.547,5.529c-12.637,8.955-25.453,17.657-38.759,26.81c1.446,1.176,2.547,2.159,3.735,3.021
	c11.659,8.443,23.396,16.784,34.939,25.381c1.797,1.337,3.971,3.994,3.721,5.712c-0.231,1.585-3.313,3.388-5.442,3.956
	c-11.447,3.053-22.979,5.802-34.513,8.527c-2.258,0.534-3.592,1.143-3.586,3.903c0.088,40.2,0.07,80.401,0.089,120.603
	c0.001,0.304-0.054,13.369-0.056,15.035c-0.012,11.078-0.1,22.16,0.074,33.235c0.063,4.084-1.673,5.94-5.535,6.866
	c-41.178,9.879-82.326,19.884-123.504,29.764c-2.244,0.539-4.743,0.688-7.019,0.336c-64.833-10.056-129.653-20.211-194.483-30.288
	c-4.102-0.639-6.069-2.374-5.974-6.825c0.233-10.916,0.094-21.84,0.105-32.762c0.001-1.699,0-3.398,0-5.706
	c-0.277-8.044,0,0-0.277-8.044c0-41.844,0-83.074,0-124.789c-12.671-2.007-25.293-3.852-37.854-6.054
	c-7.227-1.267-14.351-3.112-21.522-4.698C22.261,201.409,22.261,200.142,22.261,198.875z M281.164,413.279
	c0-69.631,0-138.502,0-207.889c-1.953,1.052-3.467,1.827-4.943,2.667c-15.119,8.585-30.193,17.258-45.396,25.692
	c-2.198,1.22-5.149,2.174-7.529,1.809c-36.87-5.662-73.701-11.574-110.545-17.399c-7.411-1.172-14.841-2.227-22.763-3.411
	c0,2.629-0.001,4.506,0,6.383c0.012,52.063,0.078,104.126-0.057,156.189c-0.012,4.533,0.644,7.104,5.892,7.094
	c3.431-0.008,6.861,1.033,10.296,1.568c41.702,6.502,83.404,12.996,125.106,19.496C247.762,408.057,264.298,410.645,281.164,413.279
	z M409.555,383.871c0-56.391,0-112.439,0-168.806c-25.571,6.179-50.757,12.198-75.894,18.413c-3.419,0.845-6.022,0.34-8.798-1.723
	c-10.154-7.547-20.431-14.933-30.672-22.36c-1.307-0.948-2.689-1.786-4.258-2.82c0,69.099,0,137.464,0,206.227
	C330.151,403.075,369.863,393.471,409.555,383.871z M109.19,165.296c-0.012,0.316-0.024,0.633-0.037,0.949
	c8.882,1.389,17.764,2.78,26.647,4.168c43.74,6.827,87.465,13.756,131.234,20.392c8.155,1.237,16.166,3.852,24.802,1.493
	c15.999-4.373,32.207-7.977,48.325-11.911c16.683-4.072,33.36-8.159,50.819-12.431c-1.242-0.643-1.729-1.065-2.27-1.15
	c-32.797-5.166-65.591-10.354-98.415-15.334c-2.05-0.313,0,0-15.151-2.326c-20.64-3.237-39.65-6.254-58.681-9.149
	c-1.654-0.252-3.474,0.086-5.136,0.483c-20.593,4.93-41.175,9.905-61.751,14.905C136.109,158.658,122.653,161.99,109.19,165.296z
	 M40.143,197.574c0.082,0.332,0.165,0.664,0.247,0.996c18.715,2.939,37.428,5.891,56.146,8.811
	c41.547,6.482,83.093,12.983,124.662,19.327c2.266,0.346,5.076-0.071,7.068-1.164c13.721-7.527,27.294-15.321,40.902-23.057
	c1.004-0.572,1.882-1.36,3.29-2.396c-17.26-2.706-33.809-5.299-50.359-7.895c-39.513-6.197-79.042-12.299-118.532-18.64
	c-16.33-2.622-16.292-2.854-30.578,5.295C62.041,185.095,51.092,191.333,40.143,197.574z M448.356,196.96
	c-10.926-7.883-21.229-15.178-31.352-22.716c-2.77-2.063-5.24-2.653-8.653-1.807c-24.687,6.129-49.427,12.043-74.144,18.045
	c-12.719,3.089-25.429,6.22-38.219,9.349c0.284,0.592,0.346,0.972,0.563,1.132c10.719,7.851,21.396,15.755,32.248,23.417
	c1.275,0.899,3.619,0.951,5.267,0.555c36.556-8.807,73.082-17.731,109.61-26.643C444.992,197.973,446.282,197.554,448.356,196.96z
	 M48.961,140.087c11.924,7.109,22.828,13.474,33.567,20.105c2.825,1.744,5.337,1.93,8.455,1.157
	c25.295-6.266,50.627-12.385,75.944-18.564c12.009-2.932,24.01-5.9,36.907-9.071c-2.145-1.371-3.404-2.247-4.729-3.011
	c-9.723-5.6-19.534-11.054-29.146-16.838c-2.832-1.704-5.349-1.96-8.445-1.198c-23.313,5.734-46.656,11.336-69.984,17.004
	C77.743,133.02,63.965,136.413,48.961,140.087z M446.566,136.857c-1.076-0.429-1.348-0.599-1.637-0.644
	c-36.054-5.652-72.104-11.328-108.181-16.839c-1.775-0.271-4.074,0.462-5.619,1.491c-10.261,6.836-20.388,13.869-30.535,20.87
	c-0.896,0.619-1.631,1.474-2.83,2.578c37.002,5.848,73.198,11.585,109.408,17.233c1.434,0.225,3.313,0.075,4.449-0.692
	C423.133,153.09,434.531,145.16,446.566,136.857z M322.037,116.887c-7.998-1.263-14.549-2.128-21.023-3.383
	c-4.16-0.806,0,0-17.828-2.568c-7.979-1.232-14.623-2.438-21.316-3.171c-1.788-0.197-3.997,0.66-5.566,1.704
	c-8.955,5.953-17.775,12.108-26.638,18.198c-1.997,1.373-3.981,2.765-6.505,4.517c1.438,0.52,1.998,0.83,2.592,0.921
	c18.744,2.905,37.486,5.815,56.246,8.62c1.457,0.219,3.359,0.177,4.492-0.581C298.022,133.419,309.439,125.521,322.037,116.887z"/>
<path fill="#FFFFFF" d="M155.246,342.875c19.39,3.023,38.601,6.02,58.424,9.111c0-1.598,0-2.883,0-4.168
	c0.001-9.615,0.009-19.23-0.003-28.846c-0.003-2.336,0.12-4.841,3.125-4.904c3.269-0.069,3.388,2.572,3.387,5.029
	c-0.002,11.588,0.025,23.174-0.014,34.762c-0.014,4.371-1.349,5.416-5.687,4.744c-19.835-3.071-39.669-6.146-59.508-9.192
	c-6.231-0.957-6.472-1.168-6.474-7.416c-0.008-22.437-0.006-44.871-0.001-67.308c0.001-5.164,0.929-5.988,6.199-5.189
	c15.219,2.307,30.429,4.665,45.642,7.008c0.608,0.094,1.208,0.254,1.817,0.335c2.264,0.298,3.819,1.354,3.422,3.851
	c-0.403,2.541-2.275,2.881-4.48,2.533c-10.947-1.723-21.898-3.422-32.849-5.127c-4.242-0.66-8.486-1.313-13-2.014
	C155.246,298.371,155.246,320.382,155.246,342.875z"/>
<path fill="#FFFFFF" d="M181.169,327.988c14.183-15.93,28.028-31.484,41.887-47.028c0.814-0.913,1.606-2.133,2.651-2.479
	c1.197-0.396,3.14-0.479,3.882,0.227c0.748,0.709,0.627,2.576,0.478,3.889c-0.082,0.721-0.982,1.365-1.556,2.006
	c-14.463,16.172-28.927,32.342-43.402,48.502c-3.877,4.328-4.925,4.264-8.456-0.422c-3.635-4.822-7.259-9.651-10.891-14.477
	c-1.434-1.905-2.574-3.928-0.052-5.727c2.37-1.69,3.852,0.037,5.173,1.795C174.206,318.691,177.519,323.118,181.169,327.988z"/>
</svg>
