<?xml version="1.0" encoding="utf-8"?>
<!-- Generator: Adobe Illustrator 16.0.0, SVG Export Plug-In . SVG Version: 6.00 Build 0)  -->
<!DOCTYPE svg PUBLIC "-//W3C//DTD SVG 1.1//EN" "http://www.w3.org/Graphics/SVG/1.1/DTD/svg11.dtd">
<svg version="1.1" id="Capa_1" xmlns="http://www.w3.org/2000/svg" xmlns:xlink="http://www.w3.org/1999/xlink" x="0px" y="0px"
	 width="500px" height="500px" viewBox="0 0 500 500" enable-background="new 0 0 500 500" xml:space="preserve">
<path fill="#FFFFFF" d="M166.526,102.989h120.373c2.024,0,3.67-1.645,3.67-3.669c0-28.023-0.041-56.899-49.358-61.476
	c-0.275-3.388-6.668-6.128-14.499-6.128s-14.224,2.74-14.495,6.128c-49.318,4.577-49.359,33.453-49.359,61.476
	C162.856,101.345,164.498,102.989,166.526,102.989z M226.711,44.537c54.234,0,56.422,22.266,56.512,51.113h-32.541
	c-0.264-5.601-6.723-10.132-14.626-10.132h-18.688c-7.904,0-14.363,4.532-14.627,10.132H170.2
	C170.284,66.806,172.476,44.537,226.711,44.537z"/>
<path fill="#FFFFFF" d="M239.834,206.511c20.17-5.757,42.545-24.468,46.023-58.384c6.425-3.104,15.684-11.55,15.229-27.035
	c-0.085-2.788-0.33-11.277-6.202-13.494c-5.823-2.198-11.919,3.899-13.082,5.14c-1.385,1.481-1.311,3.8,0.173,5.188
	c1.482,1.386,3.807,1.309,5.188-0.173c1.622-1.739,4.316-3.493,5.104-3.294c0.014,0.011,1.313,1.024,1.485,6.854
	c0.472,16.092-11.869,20.567-12.372,20.742c-1.159,0.389-2.057,1.333-2.378,2.513l-0.194,0.705
	c-0.059,0.216-0.099,0.439-0.117,0.665c-3.496,41.699-36.53,55.192-51.979,55.192c-15.446,0-48.482-13.49-51.979-55.19
	c-0.018-0.223-0.059-0.447-0.117-0.663l-0.195-0.705c-0.322-1.185-1.214-2.129-2.378-2.514c-0.128-0.041-12.848-4.471-12.371-20.741
	c0.173-5.81,1.464-6.838,1.446-6.838c0.741-0.161,3.325,1.358,5.142,3.281c1.383,1.475,3.706,1.552,5.189,0.173
	c1.479-1.386,1.555-3.71,0.173-5.189c-1.164-1.245-7.267-7.33-13.083-5.138c-5.872,2.219-6.121,10.705-6.202,13.495
	c-0.456,15.485,8.803,23.93,15.229,27.026c3.217,31.407,22.645,49.771,41.52,56.89l0.951-0.68L239.834,206.511z"/>
<path fill="#FFFFFF" d="M178.772,200.292l2.185,24.812l12.809-9.148l-9.962,4.676l-1.396-25.488
	c-0.113-2.025-1.875-3.56-3.864-3.464c-2.022,0.111-3.575,1.842-3.464,3.864l0.279,5.087c-6.508,2.209-68.041,25.002-70.199,95.286
	C116.626,220.586,178.772,200.292,178.772,200.292z"/>
<path fill="#FFFFFF" d="M274.16,203.684c20.311,5.016,35.297,14.347,46.356,25.536c-17.404-18.473-37.729-26.653-43.148-28.6
	l0.278-5.076c0.11-2.021-1.44-3.753-3.465-3.864c-2.021-0.091-3.754,1.441-3.863,3.464l-1.354,24.738l4.253,1.054L274.16,203.684z"
	/>
<path fill="#444444" d="M265.496,219.023l-13.03-6.117c-0.862-0.406-1.803-0.435-2.648-0.171l4.924,3.624L265.496,219.023z"/>
<path fill="#FFFFFF" d="M233.603,121.044c-1.071,0-2.087,0.466-2.785,1.28c-0.305,0.357-0.499,0.775-0.65,1.208h-6.916
	c-0.151-0.434-0.346-0.851-0.65-1.208c-0.697-0.811-1.714-1.28-2.785-1.28h-35.549c-0.983,0-1.926,0.396-2.616,1.097
	c-0.69,0.701-1.068,1.652-1.053,2.635c0.051,2.937,0.616,17.835,6.687,22.768c3.816,3.098,9.791,5.025,15.596,5.025
	c5.486,0,10.074-1.718,12.921-4.834c3.262-3.574,5.417-11.354,6.602-16.862h8.616c1.186,5.508,3.339,13.289,6.603,16.862
	c2.844,3.119,7.436,4.834,12.921,4.834c5.811,0,11.784-1.927,15.598-5.025c6.069-4.933,6.64-19.828,6.689-22.768
	c0.014-0.983-0.364-1.934-1.055-2.635c-0.689-0.701-1.633-1.097-2.616-1.097H233.603z M210.38,142.784
	c-1.42,1.552-4.15,2.444-7.5,2.444c-4.073,0-8.481-1.361-10.973-3.384c-1.828-1.485-3.255-7.545-3.772-13.46h27.285
	C214.233,134.075,212.313,140.667,210.38,142.784z M261.511,141.844c-2.491,2.023-6.899,3.384-10.973,3.384
	c-3.351,0-6.081-0.892-7.496-2.444c-1.931-2.114-3.854-8.709-5.039-14.401h27.284C264.771,134.303,263.339,140.363,261.511,141.844z
	"/>
<path fill="#FFFFFF" d="M191.455,142.075c2.605,2.116,7.215,3.539,11.476,3.539c3.503,0,6.359-0.933,7.843-2.556
	c2.023-2.215,4.031-9.108,5.27-15.061h-28.535C188.05,134.184,189.543,140.521,191.455,142.075z"/>
<path fill="#FFFFFF" d="M242.531,143.139c1.499,1.644,4.392,2.589,7.941,2.589c4.315,0,8.985-1.442,11.625-3.585
	c1.936-1.569,3.453-7.988,3.999-14.259h-28.904C238.448,133.913,240.485,140.899,242.531,143.139z"/>
<path fill="#FFFFFF" d="M320.518,229.22c-11.061-11.188-30.185-24.054-46.227-26.554l-5.325,17.215l-28.31-14.444l-29.5-2.25
	l-27.594,18l-3.375-21.375c0,0-66.688,19.188-75.024,96.104c-0.496,3.257,0.373,17.954,0.373,17.954h4.006v-22.705
	c0-1.545,0.755-2.993,2.025-3.88c0.334-0.23,0.692-0.414,1.064-0.551l0.001-0.006l113.913-42.03c1.055-0.389,2.215-0.389,3.27,0
	l113.914,42.03c1.854,0.688,3.092,2.457,3.092,4.437v22.705h4.663C351.481,313.871,353.958,263.047,320.518,229.22z"/>
<path fill="#FFFFFF" d="M200.765,381.902c0,1.546-0.758,2.994-2.027,3.879c-0.803,0.561-1.748,0.85-2.701,0.85
	c-0.551,0-1.104-0.099-1.635-0.294l-51.05-18.835c-1.856-0.686-3.088-2.457-3.088-4.436v-57.271l-21.27-7.848v125.154
	l104.457,38.545V336.493l-22.687-8.373L200.765,381.902L200.765,381.902z"/>
<path fill="#FFFFFF" d="M337.362,297.948l-104.458,38.545v125.154l104.458-38.543V297.948z M262.146,440.733l-2.08,0.768
	c-0.539,0.2-1.094,0.295-1.639,0.295c-1.924,0-3.729-1.184-4.435-3.092c-0.904-2.45,0.35-5.167,2.8-6.071l2.08-0.769
	c2.449-0.904,5.168,0.349,6.07,2.801C265.85,437.112,264.596,439.83,262.146,440.733z M324.817,417.607l-49.154,18.139
	c-0.541,0.199-1.093,0.293-1.638,0.293c-1.922,0-3.729-1.182-4.435-3.091c-0.903-2.45,0.351-5.166,2.798-6.07l49.156-18.14
	c2.449-0.903,5.168,0.349,6.069,2.799C328.522,413.986,327.268,416.705,324.817,417.607z M324.817,398.35l-38.847,14.334
	c-0.537,0.196-1.094,0.291-1.635,0.291c-1.923,0-3.73-1.183-4.434-3.091c-0.904-2.45,0.346-5.168,2.795-6.071l38.848-14.334
	c2.449-0.901,5.168,0.349,6.069,2.799C328.522,394.727,327.268,397.443,324.817,398.35z M324.817,379.286l-38.847,14.335
	c-0.537,0.199-1.094,0.294-1.635,0.294c-1.923,0-3.73-1.183-4.434-3.093c-0.904-2.449,0.346-5.167,2.795-6.07l38.848-14.336
	c2.449-0.898,5.168,0.35,6.069,2.801C328.522,375.666,327.268,378.382,324.817,379.286z"/>
<path fill="#FFFFFF" d="M194.402,279.193c1.056-0.389,2.215-0.389,3.272,0l51.049,18.836c1.854,0.686,3.089,2.457,3.089,4.435
	c0,1.979-1.234,3.749-3.089,4.437l-39.082,14.42l18.538,6.841l100.255-36.994l-100.255-36.993l-100.257,36.993l17.018,6.278
	L194.402,279.193z"/>
<polygon fill="#FFFFFF" points="191.31,324.632 149.715,309.283 149.715,359.771 191.31,375.117 "/>
<polygon fill="#FFFFFF" points="196.037,316.262 233.431,302.464 196.037,288.667 158.644,302.465 "/>
</svg>
