<?xml version="1.0" encoding="utf-8"?>
<!-- Generator: Adobe Illustrator 16.0.0, SVG Export Plug-In . SVG Version: 6.00 Build 0)  -->
<!DOCTYPE svg PUBLIC "-//W3C//DTD SVG 1.1//EN" "http://www.w3.org/Graphics/SVG/1.1/DTD/svg11.dtd">
<svg version="1.1" id="Capa_1" xmlns="http://www.w3.org/2000/svg" xmlns:xlink="http://www.w3.org/1999/xlink" x="0px" y="0px"
	 width="500px" height="500px" viewBox="0 0 500 500" enable-background="new 0 0 500 500" xml:space="preserve">
<g>
	<path fill="#FFFFFF" d="M362.133,440.332c0-3.837,0-7.673,0-11.863c4.054,0,7.723,0,12.535,0c-2.395-2.637-4.143-4.515-5.84-6.437
		c-18.006-20.403-33.711-42.306-43.021-68.152c-6.415-17.808-9.489-35.97-4.479-54.825c7.838-29.504,37.053-50.905,67.617-49.306
		c39.896,2.088,68.436,35.035,64.848,74.751c-2.232,24.706-12.35,46.363-25.761,66.697c-11.929,18.09-25.985,34.417-41.897,49.135
		C378.133,440.332,370.133,440.332,362.133,440.332z M386.151,423.697c20.938-22.135,38.808-45.064,49.343-72.844
		c5.088-13.416,8.12-27.326,5.967-41.871c-3.658-24.729-24.156-44.563-48.604-47.026c-25.666-2.587-49.406,11.918-58.355,35.55
		c-5.986,15.803-3.947,31.479,0.825,47.012c5.946,19.348,16.269,36.436,28.503,52.354
		C370.79,405.934,378.433,414.469,386.151,423.697z"/>
	<path fill="#FFFFFF" d="M114.11,30.696c1.774,0.437,3.54,0.911,5.323,1.302c32.926,7.208,53.33,37.768,48.005,71.343
		c-3.644,22.978-14.058,42.858-27.319,61.44c-6.082,8.523-12.933,16.497-19.683,25.034c3.428,0,6.794,0,10.387,0
		c0,4.1,0,7.777,0,12.046c-7.713,0-15.511,0.042-23.308-0.067c-0.767-0.011-1.614-0.858-2.266-1.481
		c-22.961-21.979-42.421-46.468-53.246-76.778c-6.155-17.237-8.981-34.974-2.076-52.743C58.542,48.623,74.794,35.5,98.285,31.429
		c0.76-0.131,1.483-0.482,2.223-0.731C105.043,30.696,109.577,30.696,114.11,30.696z M107.057,186.019
		c1.252-1.522,2.02-2.424,2.754-3.353c8.669-10.952,18.022-21.44,25.835-32.973c11.141-16.445,19.127-34.332,20.442-54.692
		c1.238-19.156-9.309-38.159-26.674-46.884c-18.037-9.063-39.391-6.575-54.14,6.498c-16.692,14.794-19.995,33.4-15.098,54.252
		c4.791,20.4,15.324,37.899,27.821,54.313C93.859,170.878,100.389,178.07,107.057,186.019z"/>
	<path fill="#FFFFFF" d="M266.123,440.332c0-3.818,0-7.637,0-11.736c8.068,0,15.8,0,24.003,0c0,3.908,0,7.822,0,11.736
		C282.125,440.332,274.125,440.332,266.123,440.332z"/>
	<path fill="#FFFFFF" d="M314.128,440.332c0-3.817,0-7.635,0-11.725c8.082,0,15.813,0,24.002,0c0,3.898,0,7.813,0,11.725
		C330.129,440.332,322.129,440.332,314.128,440.332z"/>
	<path fill="#FFFFFF" d="M222.92,440.332c-1.748-0.48-3.497-0.962-5.621-1.545c0.674-3.591,1.35-7.188,2.016-10.731
		c7.592,0,14.947,0,22.807,0c0,4.424,0,8.351,0,12.276C235.721,440.332,229.32,440.332,222.92,440.332z"/>
	<path fill="#FFFFFF" d="M272.359,205.55c-7.232-1.501-13.955-2.896-21.021-4.362c0-3.304,0-7.081,0-11.184
		c8.893-0.022,17.184,1.68,25.475,5.393C275.234,198.994,273.76,202.356,272.359,205.55z"/>
	<path fill="#FFFFFF" d="M301.123,236.729c-3.787-6.341-7.244-12.132-11.079-18.554c2.312-2.152,5.083-4.731,8.118-7.558
		c6.207,6.469,10.444,13.833,13.541,22.449C308.061,234.327,304.475,235.569,301.123,236.729z"/>
	<path fill="#FFFFFF" d="M164.195,360.453c3.846,0.72,7.473,1.398,11.129,2.083c0,7.164,0,14.134,0,21.694
		c-3.213,0.675-6.893,1.444-10.949,2.295C162.424,377.684,162.418,369.227,164.195,360.453z"/>
	<path fill="#FFFFFF" d="M199.422,419.373c-2.117,3.181-4.234,6.363-6.938,10.427c-6.341-6.284-12.323-12.214-18.768-18.603
		c4.071-2.768,7.199-4.893,8.925-6.065c5.327,5.457,10.229,10.478,15.129,15.499C198.32,420.211,198.871,419.792,199.422,419.373z"
		/>
	<path fill="#FFFFFF" d="M155.271,201.682c0-3.851,0-7.508,0-11.479c7.768,0,15.503,0,23.521,0c0,3.739,0,7.492,0,11.479
		C170.982,201.682,163.241,201.682,155.271,201.682z"/>
	<path fill="#FFFFFF" d="M203.31,190.078c7.899,0,15.544,0,23.491,0c0,3.817,0,7.572,0,11.594c-7.766,0-15.509,0-23.491,0
		C203.31,197.888,203.31,194.231,203.31,190.078z"/>
	<path fill="#FFFFFF" d="M218.629,317.971c-0.646-3.021-1.414-6.617-2.409-11.272c8.522-0.394,16.614-0.769,24.972-1.153
		c0,4.352,0,8.028,0,12.426C233.826,317.971,226.458,317.971,218.629,317.971z"/>
	<path fill="#FFFFFF" d="M183.683,342.555c-3.177-2.091-6.353-4.18-10.452-6.875c6.291-6.416,12.223-12.466,18.502-18.869
		c2.777,4.027,4.875,7.067,6.417,9.307c-5.353,5.047-10.503,9.904-15.655,14.764C182.891,341.438,183.287,341.996,183.683,342.555z"
		/>
	<path fill="#FFFFFF" d="M315.912,259.243c-2.674,8.92-5.09,16.979-7.654,25.528c-4.338-2.364-7.672-4.182-10.68-5.819
		c2.092-6.972,4.063-13.54,6.188-20.622C307.01,258.574,310.791,258.857,315.912,259.243z"/>
	<path fill="#FFFFFF" d="M266.771,315.752c-0.983-3.977-1.863-7.531-2.674-10.803c6.543-3.186,12.799-6.229,19.379-9.432
		c2.074,2.647,4.344,5.545,6.865,8.767C283.393,309.829,275.771,313.482,266.771,315.752z"/>
	<path fill="#FFFFFF" d="M385.943,270.253c24.875-0.657,46.789,20.122,47.438,44.981c0.701,26.793-19.473,48.428-45.729,49.041
		c-26.012,0.607-47.441-19.875-48.069-45.944C338.951,292.154,359.394,270.956,385.943,270.253z M351.584,317.212
		c-0.051,19.065,15.506,34.81,34.652,35.065c19.083,0.258,35.135-15.688,35.174-34.938c0.039-19.223-15.998-35.26-35.055-35.054
		C367.148,282.494,351.635,298.077,351.584,317.212z"/>
	<path fill="#FFFFFF" d="M149.748,90.793c1.025,22.692-17.675,42.378-41.43,43.614c-22.272,1.159-42.778-17.797-43.745-40.441
		c-1.008-23.571,17.277-43.743,40.582-44.773C128.946,48.142,148.652,66.525,149.748,90.793z M137.565,93.477
		c1.483-16.104-11.349-30.54-28.629-32.205c-16.024-1.544-30.938,11.522-32.251,28.631c-1.206,15.711,10.797,31.524,29.279,32.385
		C122.165,123.043,136.819,110.352,137.565,93.477z"/>
</g>
</svg>
